<?xml version="1.0" encoding="utf-8"?>
<!-- Generator: Adobe Illustrator 16.0.0, SVG Export Plug-In . SVG Version: 6.00 Build 0)  -->
<!DOCTYPE svg PUBLIC "-//W3C//DTD SVG 1.1//EN" "http://www.w3.org/Graphics/SVG/1.1/DTD/svg11.dtd">
<svg version="1.1" id="Capa_1" xmlns="http://www.w3.org/2000/svg" xmlns:xlink="http://www.w3.org/1999/xlink" x="0px" y="0px"
	 width="595.279px" height="841.891px" viewBox="0 0 595.279 841.891" enable-background="new 0 0 595.279 841.891"
	 xml:space="preserve">
<g>
	<path fill-rule="evenodd" clip-rule="evenodd" d="M432.508,719.749c-89.525,0-179.05,0-268.574,0
		c-17.798-6.242-23.642-19.229-23.283-37.424c0.708-35.824,0.209-71.672,0.209-107.51c0-3.009,0-6.019,0-9.409
		c-2.593,0-4.698,0-6.804,0c-26.152,0-52.309,0.244-78.454-0.191c-5.758-0.096-12.114-1.458-17.08-4.232
		c-10.309-5.759-14.381-15.577-14.352-27.336c0.096-37.968,0.034-75.938,0.033-113.906c0-8.057,0-16.114,0-24.171
		c0.946-0.734,0.171-1.274-0.614-1.799C6.262,382.19-1.019,362.789,4.799,343.7c5.674-18.62,22.592-30.74,43.125-30.83
		c11.429-0.05,22.859-0.009,34.288-0.009c3.015,0,6.031,0,8.868,0c7.071-38.638,15.745-51.87,51.584-78.919
		c-1.137-0.889-2.282-1.635-3.25-2.563c-28.588-27.427-25.578-72.932,7.016-95.366c7.86-5.409,17.814-7.778,26.805-11.544
		c5.426,0,10.852,0,16.277,0c1.084,0.359,2.146,0.828,3.256,1.061c24.282,5.083,40.831,19.288,48.055,42.954
		c7.165,23.471,1.341,44.34-15.714,61.999c-1.247,1.291-2.836,2.251-4.638,3.655c25.777,14.405,41.133,35.412,48.997,62.667
		c19.933-9.784,39.507-9.458,57.415-0.522c6.646-12.138,12.379-24.171,19.552-35.274c7.382-11.43,18.302-19.569,30.342-26.419
		c-1.787-1.704-3.063-2.886-4.3-4.105c-27.655-27.242-24.136-72.824,8.067-94.559c8.08-5.452,18.308-7.722,27.548-11.455
		c5.426,0,10.851,0,16.277,0c1.233,0.411,2.441,0.947,3.708,1.214c32.432,6.84,53.611,37.178,48.835,69.892
		c-2.284,15.646-9.983,28.248-21.875,38.838c30.218,17.566,46.153,44.154,50.781,78.466c15.458,0,30.751-0.427,46.009,0.109
		c18.8,0.661,32.593,9.943,39.571,27.384c6.861,17.149,4.267,33.947-9.488,46.419c-7.504,6.804-9.056,12.82-8.862,22.441
		c0.829,41.443,0.412,82.913,0.327,124.373c-0.041,19.876-12.077,31.77-31.914,31.795c-26.349,0.031-52.696,0.008-79.044,0.008
		c-2.048,0-4.095,0-6.003,0c0,41.313-0.067,81.789,0.04,122.265c0.034,12.946-4.729,22.951-16.467,29.063
		C437.615,717.969,435.008,718.755,432.508,719.749z M298.89,501.261c-44.746,0-89.492-0.046-134.237,0.03
		c-12.447,0.021-21.531,8.728-21.622,20.3c-0.091,11.629,8.798,20.296,21.297,20.516c9.102,0.159,18.208,0.043,27.312,0.045
		c17.821,0.005,35.642-0.077,53.462,0.045c7.969,0.054,13.08,4.859,13.037,11.751c-0.042,6.988-4.988,11.405-13.207,11.429
		c-23.631,0.071-47.264,0.016-70.895,0.037c-8.295,0.008-9.873,1.571-9.876,9.787c-0.014,37.191-0.015,74.383,0,111.573
		c0.003,8.23,1.503,9.678,9.896,9.678c83.1,0.005,166.198,0.005,249.297,0c8.476-0.001,9.715-1.22,9.719-9.791
		c0.021-36.997,0.019-73.994,0.003-110.991c-0.004-9.065-1.243-10.255-10.522-10.26c-23.245-0.011-46.489-0.049-69.733,0.026
		c-5.006,0.017-9.2-1.265-11.835-5.806c-4.708-8.115,1.136-17.273,11.363-17.422c13.751-0.198,27.505-0.043,41.258-0.059
		c13.752-0.016,27.515,0.244,41.256-0.173c13.048-0.396,21.892-12.596,18.753-25.083c-2.471-9.83-10.366-15.611-21.649-15.62
		C387.606,501.239,343.247,501.26,298.89,501.261z M474.958,542.151c21.207,0,43.468,0.017,65.729-0.008
		c7.965-0.009,9.402-1.452,9.407-9.605c0.023-40.877,0.025-81.754-0.002-122.632c-0.005-7.874-1.78-9.666-9.498-9.668
		c-64.9-0.015-129.8-0.011-194.699,0.01c-1.353,0-2.705,0.276-5.367,0.565c14.974,8.758,26.094,19.583,34.636,33.046
		c8.515,13.423,13.071,28.269,15.268,44.141c15.073,0,29.596-0.247,44.107,0.058c21.777,0.458,39.569,15.722,42.194,37.349
		C477.766,523.909,475.676,532.79,474.958,542.151z M256.692,400.779c-1.798-0.341-2.327-0.528-2.856-0.528
		c-66.042-0.015-132.084-0.033-198.126,0.008c-6.31,0.004-8.189,2.18-8.195,9.189c-0.032,41.252-0.035,82.504,0.002,123.755
		c0.006,7.304,1.658,8.923,8.888,8.935c21.11,0.038,42.22,0.023,63.331-0.005c1.418-0.003,2.837-0.286,4.605-0.478
		c-0.534-1.391-0.874-2.272-1.212-3.155c-10.555-27.459,5.531-55.777,34.654-59.895c9.506-1.345,19.323-0.534,28.998-0.635
		c6.696-0.069,13.394-0.013,20.144-0.013C211.558,444.474,227.2,418.768,256.692,400.779z M358.896,336.529
		c3.042,13.761,1.774,27.006-3.65,40.447c2.692,0,4.413,0,6.134,0c62.346,0,124.692,0,187.038-0.006
		c1.548,0,3.103-0.002,4.644-0.131c9.155-0.771,16.69-7.897,17.989-16.967c1.892-13.206-7.355-23.706-21.309-23.723
		c-62.152-0.076-124.304-0.036-186.456-0.018C361.969,336.131,360.655,336.364,358.896,336.529z M238.487,336.114
		c-3.091,0-5.396,0-7.702,0c-59.294,0-118.588-0.001-177.882,0.002c-2.519,0-5.049-0.111-7.555,0.084
		c-13.192,1.027-21.934,13.514-18.377,26.156c2.597,9.23,10.506,14.6,21.856,14.605c62.588,0.028,125.177,0.017,187.765-0.001
		c1.638,0,3.276-0.225,5.458-0.384C236.334,363.395,235.766,350.239,238.487,336.114z M366.113,477.67
		c-1.06-25.214-24.589-62.489-64.771-64.085c-35.118-1.396-67.813,28.228-70.292,64.085C276.08,477.67,321.09,477.67,366.113,477.67
		z M115.288,312.426c44.693,0,88.913,0,133.189,0c-5.188-37.741-34.876-65.141-68.248-64.069
		C141.832,249.59,117.547,284.196,115.288,312.426z M350.107,312.54c43.889,0,87.766,0,131.67,0
		c-3.025-36.02-34.447-65.362-67.715-64.161C374.901,249.792,351.307,286.643,350.107,312.54z M415.001,224.87
		c21.092,0.492,38.725-16.252,39.422-37.436c0.688-20.875-16.368-39.017-37.275-39.646c-21.659-0.653-39.553,16.396-39.977,38.087
		C376.761,206.875,393.738,224.374,415.001,224.87z M182.035,224.897c21.198-0.134,38.342-17.312,38.394-38.47
		c0.051-21.287-17.512-38.761-38.855-38.655c-21.041,0.104-38.385,17.499-38.419,38.531
		C143.121,207.596,160.686,225.031,182.035,224.897z M260.197,351.547c0.009,21.31,16.898,38.328,38.206,38.499
		c21.402,0.171,38.833-17.149,38.804-38.559c-0.027-21.163-17.19-38.464-38.277-38.587
		C277.552,312.777,260.187,330.102,260.197,351.547z"/>
	<path fill-rule="evenodd" clip-rule="evenodd" d="M298.631,565.315c-6.41-0.076-11.434-5.124-11.418-11.473
		c0.015-6.211,5.26-11.514,11.463-11.593c6.427-0.08,11.892,5.484,11.711,11.926C310.21,560.531,305.08,565.393,298.631,565.315z"/>
</g>
</svg>
