<?xml version="1.0" encoding="utf-8"?>
<!-- Generator: Adobe Illustrator 19.2.0, SVG Export Plug-In . SVG Version: 6.00 Build 0)  -->
<svg version="1.1" id="Capa_1" xmlns="http://www.w3.org/2000/svg" xmlns:xlink="http://www.w3.org/1999/xlink" x="0px" y="0px"
	 viewBox="0 0 595.3 841.9" style="enable-background:new 0 0 595.3 841.9;" xml:space="preserve">
<style type="text/css">
	.st0{fill:#164284;}
</style>
<g>
	<path class="st0" d="M432.5,719.7c-89.5,0-179.1,0-268.6,0c-17.8-6.2-23.6-19.2-23.3-37.4c0.7-35.8,0.2-71.7,0.2-107.5
		c0-3,0-6,0-9.4c-2.6,0-4.7,0-6.8,0c-26.2,0-52.3,0.2-78.5-0.2c-5.8-0.1-12.1-1.5-17.1-4.2c-10.3-5.8-14.4-15.6-14.4-27.3
		c0.1-38,0-75.9,0-113.9c0-8.1,0-16.1,0-24.2c0.9-0.7,0.2-1.3-0.6-1.8C6.3,382.2-1,362.8,4.8,343.7c5.7-18.6,22.6-30.7,43.1-30.8
		c11.4,0,22.9,0,34.3,0c3,0,6,0,8.9,0c7.1-38.6,15.7-51.9,51.6-78.9c-1.1-0.9-2.3-1.6-3.2-2.6c-28.6-27.4-25.6-72.9,7-95.4
		c7.9-5.4,17.8-7.8,26.8-11.5c5.4,0,10.9,0,16.3,0c1.1,0.4,2.1,0.8,3.3,1.1c24.3,5.1,40.8,19.3,48.1,43c7.2,23.5,1.3,44.3-15.7,62
		c-1.2,1.3-2.8,2.3-4.6,3.7c25.8,14.4,41.1,35.4,49,62.7c19.9-9.8,39.5-9.5,57.4-0.5c6.6-12.1,12.4-24.2,19.6-35.3
		c7.4-11.4,18.3-19.6,30.3-26.4c-1.8-1.7-3.1-2.9-4.3-4.1c-27.7-27.2-24.1-72.8,8.1-94.6c8.1-5.5,18.3-7.7,27.5-11.5
		c5.4,0,10.9,0,16.3,0c1.2,0.4,2.4,0.9,3.7,1.2c32.4,6.8,53.6,37.2,48.8,69.9c-2.3,15.6-10,28.2-21.9,38.8
		c30.2,17.6,46.2,44.2,50.8,78.5c15.5,0,30.8-0.4,46,0.1c18.8,0.7,32.6,9.9,39.6,27.4c6.9,17.1,4.3,33.9-9.5,46.4
		c-7.5,6.8-9.1,12.8-8.9,22.4c0.8,41.4,0.4,82.9,0.3,124.4c0,19.9-12.1,31.8-31.9,31.8c-26.3,0-52.7,0-79,0c-2,0-4.1,0-6,0
		c0,41.3-0.1,81.8,0,122.3c0,12.9-4.7,23-16.5,29.1C437.6,718,435,718.8,432.5,719.7z M298.9,501.3c-44.7,0-89.5,0-134.2,0
		c-12.4,0-21.5,8.7-21.6,20.3c-0.1,11.6,8.8,20.3,21.3,20.5c9.1,0.2,18.2,0,27.3,0c17.8,0,35.6-0.1,53.5,0c8,0.1,13.1,4.9,13,11.8
		c0,7-5,11.4-13.2,11.4c-23.6,0.1-47.3,0-70.9,0c-8.3,0-9.9,1.6-9.9,9.8c0,37.2,0,74.4,0,111.6c0,8.2,1.5,9.7,9.9,9.7
		c83.1,0,166.2,0,249.3,0c8.5,0,9.7-1.2,9.7-9.8c0-37,0-74,0-111c0-9.1-1.2-10.3-10.5-10.3c-23.2,0-46.5,0-69.7,0
		c-5,0-9.2-1.3-11.8-5.8c-4.7-8.1,1.1-17.3,11.4-17.4c13.8-0.2,27.5,0,41.3-0.1c13.8,0,27.5,0.2,41.3-0.2
		c13-0.4,21.9-12.6,18.8-25.1c-2.5-9.8-10.4-15.6-21.6-15.6C387.6,501.2,343.2,501.3,298.9,501.3z M475,542.2c21.2,0,43.5,0,65.7,0
		c8,0,9.4-1.5,9.4-9.6c0-40.9,0-81.8,0-122.6c0-7.9-1.8-9.7-9.5-9.7c-64.9,0-129.8,0-194.7,0c-1.4,0-2.7,0.3-5.4,0.6
		c15,8.8,26.1,19.6,34.6,33c8.5,13.4,13.1,28.3,15.3,44.1c15.1,0,29.6-0.2,44.1,0.1c21.8,0.5,39.6,15.7,42.2,37.3
		C477.8,523.9,475.7,532.8,475,542.2z M256.7,400.8c-1.8-0.3-2.3-0.5-2.9-0.5c-66,0-132.1,0-198.1,0c-6.3,0-8.2,2.2-8.2,9.2
		c0,41.3,0,82.5,0,123.8c0,7.3,1.7,8.9,8.9,8.9c21.1,0,42.2,0,63.3,0c1.4,0,2.8-0.3,4.6-0.5c-0.5-1.4-0.9-2.3-1.2-3.2
		c-10.6-27.5,5.5-55.8,34.7-59.9c9.5-1.3,19.3-0.5,29-0.6c6.7-0.1,13.4,0,20.1,0C211.6,444.5,227.2,418.8,256.7,400.8z M358.9,336.5
		c3,13.8,1.8,27-3.6,40.4c2.7,0,4.4,0,6.1,0c62.3,0,124.7,0,187,0c1.5,0,3.1,0,4.6-0.1c9.2-0.8,16.7-7.9,18-17
		c1.9-13.2-7.4-23.7-21.3-23.7c-62.2-0.1-124.3,0-186.5,0C362,336.1,360.7,336.4,358.9,336.5z M238.5,336.1c-3.1,0-5.4,0-7.7,0
		c-59.3,0-118.6,0-177.9,0c-2.5,0-5-0.1-7.6,0.1c-13.2,1-21.9,13.5-18.4,26.2c2.6,9.2,10.5,14.6,21.9,14.6c62.6,0,125.2,0,187.8,0
		c1.6,0,3.3-0.2,5.5-0.4C236.3,363.4,235.8,350.2,238.5,336.1z M366.1,477.7c-1.1-25.2-24.6-62.5-64.8-64.1
		c-35.1-1.4-67.8,28.2-70.3,64.1C276.1,477.7,321.1,477.7,366.1,477.7z M115.3,312.4c44.7,0,88.9,0,133.2,0
		c-5.2-37.7-34.9-65.1-68.2-64.1C141.8,249.6,117.5,284.2,115.3,312.4z M350.1,312.5c43.9,0,87.8,0,131.7,0
		c-3-36-34.4-65.4-67.7-64.2C374.9,249.8,351.3,286.6,350.1,312.5z M415,224.9c21.1,0.5,38.7-16.3,39.4-37.4
		c0.7-20.9-16.4-39-37.3-39.6c-21.7-0.7-39.6,16.4-40,38.1C376.8,206.9,393.7,224.4,415,224.9z M182,224.9
		c21.2-0.1,38.3-17.3,38.4-38.5c0.1-21.3-17.5-38.8-38.9-38.7c-21,0.1-38.4,17.5-38.4,38.5C143.1,207.6,160.7,225,182,224.9z
		 M260.2,351.5c0,21.3,16.9,38.3,38.2,38.5c21.4,0.2,38.8-17.1,38.8-38.6c0-21.2-17.2-38.5-38.3-38.6
		C277.6,312.8,260.2,330.1,260.2,351.5z"/>
	<path class="st0" d="M298.6,565.3c-6.4-0.1-11.4-5.1-11.4-11.5c0-6.2,5.3-11.5,11.5-11.6c6.4-0.1,11.9,5.5,11.7,11.9
		C310.2,560.5,305.1,565.4,298.6,565.3z"/>
</g>
</svg>
