<?xml version="1.0" encoding="utf-8"?>
<!-- Generator: Adobe Illustrator 19.2.0, SVG Export Plug-In . SVG Version: 6.00 Build 0)  -->
<svg version="1.1" id="Capa_1" xmlns="http://www.w3.org/2000/svg" xmlns:xlink="http://www.w3.org/1999/xlink" x="0px" y="0px"
	 viewBox="0 0 595.3 841.9" style="enable-background:new 0 0 595.3 841.9;" xml:space="preserve">
<style type="text/css">
	.st0{fill:#164284;}
</style>
<g>
	<path class="st0" d="M362.6,370.6c1.1,1.2,2.1,2.3,3.2,3.5c0.7-0.3,1.3-0.4,1.7-0.8c4.6-4.5,9-9.1,13.6-13.5
		c17-16.1,42.3-16.1,58.6,0c16.3,16,17.1,41.8,0.9,58.6c-22,22.7-44.5,44.8-66.9,67.1c-5.1,5.1-10,5-15.2-0.2
		c-22.2-22.1-45.1-43.8-66.2-66.9c-6.8-7.4-12.4-8.3-20.7-6.2c-10,2.5-19.8,3.2-29.3-2.3c-2-1.1-5.3-0.6-7.9,0
		c-15.8,3.3-28.7-0.7-38-14.4c-0.9-1.3-3.1-2.1-4.7-2.2c-32.9-2.1-60.2-15.6-80.6-41.3c-9.1-11.4-19.3-19.8-32.9-25.2
		c-17.1-6.7-33.5-15.1-50.3-22.4c-5.7-2.5-8.3-6.1-8.2-12.4c0.2-44.7,0.1-89.5,0.1-134.2c0-10.5,6.3-14.4,15.6-9.8
		c36.2,18,72.3,36.1,108.6,53.9c3.5,1.7,7.7,2.6,11.6,2.6c44.2-0.7,88.3-1.7,132.4-2.5c16.9-0.3,31,5.6,42.1,18.5
		c11.2,12.9,22.5,25.6,33.5,38.6c11.2,13.3,14.9,28.6,11.3,45.6c-0.5,2.3-1,4.5-1.5,6.8c-1.5,6.7-2,13,0.4,20.2
		C378.8,346.1,373.7,359.4,362.6,370.6z M38.8,170.4c-0.2,1.1-0.4,1.6-0.4,2.2c0,37.4,0,74.8-0.1,112.2c0,3.6,1.9,4.6,4.5,5.7
		c17.5,7.8,34.8,16.1,52.4,23.5c9.6,4,17.6,9.2,23.5,17.9c3.2,4.8,7.1,9.2,11.2,13.4c21,21.3,46.2,33.1,76.3,27.7
		c12.4-2.2,24-9.2,35.9-14.2c7-2.9,13.2-7.5,21.8-6.3c23,3.3,46.1,5.7,69.1,8.6c11.8,1.5,21.7-5.2,23.7-16.2
		c1.9-10.6-4.9-20.2-16.5-22.8c-17.4-3.9-34.8-7.6-52.2-11.4c-12.3-2.7-24.6-5.2-36.8-8.1c-5.4-1.3-8.1-6-6.9-11
		c1.1-4.7,5.3-7.4,10.6-6.9c1.7,0.2,3.4,0.6,5.1,1c4.7,1,9.3,1.9,14.7,3c-2.1-5.3-3.9-9.8-5.5-14.3c-2-5.6,0.1-10.7,4.9-12.6
		c4.9-1.9,9.8,0.2,12.2,5.7c2.4,5.5,4.5,11.1,6.7,16.7c4.2,10.7,5,11.2,16.8,11.3c4.1-13.6,6.5-16.8,12.7-15.2
		c11.9,3,6.5,12.3,6.1,19.8c9,2.2,17.7,4.4,26.5,6.5c5.1-14.7,2.3-27.6-8.4-39.1c-10.4-11.2-20.3-22.9-30.2-34.6
		c-7.6-8.9-17.1-12.9-28.6-12.7c-44.7,0.9-89.5,2-134.2,2.6c-5.4,0.1-11.2-1.2-16-3.6c-31.3-15.2-62.4-30.9-93.6-46.4
		C42.4,171.9,40.7,171.2,38.8,170.4z M366.3,466.4c20.6-20.6,40.9-40.5,60.7-60.9c3.5-3.6,5.6-9.4,6.4-14.4
		c1.4-9.2-4.3-18.1-12.6-22.3c-8.8-4.4-18.9-3-26.4,4c-7.2,6.8-13.9,14-21,20.8c-4.7,4.5-9.5,4.4-14.3,0c-1.3-1.2-2.5-2.4-3.7-3.7
		c-5.7-6.3-11-11.7-21.3-10.5c-8.6,1-17.7-1.5-26.4-2.9c-4.2-0.7-6.1,1.1-7.2,4.6c-3.3,9.8-1.1,18.3,6.1,25.6
		c19.1,19.2,38.3,38.3,57.5,57.5C364.6,464.9,365.3,465.5,366.3,466.4z M279.6,391.8c1.1-6.5,2-12.2,2.9-18.1
		c-2.8-0.4-5.4-0.9-8.1-1.2c-2.7-0.4-5.4-1-8.1-0.8c-4.3,0.4-8.7,0.6-12.6,2.2c-6.1,2.4-8,7.4-6.3,13.1c1.7,5.8,6.6,9,13,8.1
		C266.8,394.3,273.3,393,279.6,391.8z M227.8,386.4c-3.8,1.4-6.7,2.4-9.6,3.5c0.1,0.5,0.1,1,0.2,1.4c3.4,0.2,6.9,0.5,11,0.7
		C228.7,389.7,228.3,388.3,227.8,386.4z"/>
	<path class="st0" d="M261.9,536.3c4.1-15.7,13.1-26,28.5-29.7c3.7-0.9,7.7-1,11.5-1c26.9-0.1,53.8,0.1,80.8-0.2
		c2.9,0,6.4-1.3,8.7-3.2c38.1-32.2,92.5-32.4,130.7-0.3c2.5,2.1,6.4,3.4,9.7,3.5c11.4,0.4,22.9,0.1,34.3,0.2
		c8.5,0,11.7,3.2,11.7,11.5c0,42,0,84.1,0,126.1c0,8.3-3.4,12.2-11.7,11.4c-37.2-3.8-71.9,7.6-107,17c-25.2,6.7-50.4,13.4-75.7,20
		c-26.5,6.8-51.4,3-74.5-11.8c-49.6-31.6-99.3-63.2-148.9-94.8c-4.1-2.6-8.2-5.1-12.2-7.9c-15.5-11-20.8-31-12.7-48
		c8-16.9,26.9-25.5,45.4-19.7c25.1,7.9,49.9,16.5,74.9,24.8C257.3,534.9,259.3,535.5,261.9,536.3z M558.9,635.6
		c0-37.2,0-74.1,0-111.5c-11,0-21.6-0.2-32.2,0.1c-5.6,0.1-9.9-1.6-14-5.4C480.7,489,433,489,401.1,518.8c-4.2,3.9-8.5,5.4-14.1,5.4
		c-29.1-0.2-58.1-0.1-87.2,0c-11.3,0-19.3,7.5-19.6,17.9c-0.3,10.6,7.6,18.6,19,19.2c1.7,0.1,3.5,0,5.2,0c28.5,0,57,0,85.4,0
		c6.9,0,11.1,3.5,11.1,9.1c0.1,5.5-4.2,9.4-11,9.4c-30.4,0.1-60.8,0.2-91.3-0.1c-14.5-0.1-25.5-6.9-32.9-19.5
		c-1.1-1.9-3.3-3.9-5.4-4.6c-28.2-9.6-56.4-19-84.7-28.3c-10.3-3.4-19.8,0.7-24,9.7c-4.4,9.2-1.5,19.6,7.5,25.4
		c54.2,34.6,108.4,69.1,162.7,103.4c15.6,9.8,33,12.9,50.8,8.7c30.8-7.4,61.5-15.7,92.1-23.8c30.4-8.1,60.5-18.1,92.8-14.8
		C558,635.9,558.2,635.8,558.9,635.6z"/>
</g>
</svg>
