<?xml version="1.0" encoding="utf-8"?>
<!-- Generator: Adobe Illustrator 16.0.0, SVG Export Plug-In . SVG Version: 6.00 Build 0)  -->
<!DOCTYPE svg PUBLIC "-//W3C//DTD SVG 1.1//EN" "http://www.w3.org/Graphics/SVG/1.1/DTD/svg11.dtd">
<svg version="1.1" id="Capa_1" xmlns="http://www.w3.org/2000/svg" xmlns:xlink="http://www.w3.org/1999/xlink" x="0px" y="0px"
	 width="616.033px" height="620.97px" viewBox="-20.754 110.051 616.033 620.97"
	 enable-background="new -20.754 110.051 616.033 620.97" xml:space="preserve">
<g>
	<path fill-rule="evenodd" clip-rule="evenodd" d="M579.705,334.863c-8.538,33.585-25.938,61.921-51.966,84.799
		c-4.138,3.637-5.867,7.261-5.76,12.831c0.366,18.98,0.076,37.974,0.178,56.962c0.03,5.893-1.401,10.875-7.276,13.271
		c-5.853,2.387-10.456-0.146-14.573-4.279c-12.578-12.629-25.279-25.14-37.776-37.849c-2.54-2.582-4.716-3.554-8.516-2.645
		c-24.588,5.881-49.595,4.94-74.583,4.055c-30.731-1.089-59.088-9.976-84.643-26.929c-41.506-27.536-67.44-65.832-74.803-115.254
		c-9.142-61.369,10.346-113.117,56.593-154.304c26.187-23.321,57.405-36.116,92.25-40.038c1.892-0.213,3.755-0.671,5.632-1.015
		c17.827,0,35.655,0,53.482,0c1.876,0.344,3.759,0.649,5.626,1.038c11.344,2.356,23.106,3.519,33.955,7.3
		c59.246,20.651,97.155,61.413,112.71,122.414c2.187,8.574,4.668,34.384,4.668,43.26C584.904,309.7,582.029,325.727,579.705,334.863
		z M498.866,464.188c0-11.775,0.853-21.929-0.209-31.879c-1.427-13.383,3.77-21.979,13.953-30.581
		c27.91-23.575,43.521-54.513,47.809-90.708c4.728-39.915-5.381-76.141-30.323-107.708c-23.127-29.272-53.265-47.827-90.319-53.076
		c-17.715-2.509-35.885-2.205-53.855-2.377c-19.963-0.191-39.373,3.7-57.5,12.123c-47.834,22.225-77.621,59.133-85.508,111.5
		c-8.321,55.258,10.665,101.007,53.73,136.289c24.382,19.976,52.945,30.081,84.537,31.077c24.964,0.786,50.01,1.989,74.376-5.263
		c7.216-2.146,12.656-0.498,17.74,4.865C481.248,446.839,489.574,454.874,498.866,464.188z"/>
	<path fill-rule="evenodd" clip-rule="evenodd" d="M-10.378,398.855c0-11.88,6.624-23.234,12.587-33.275
		c14.435-24.307,36.889-37.735,65.118-38.448c39.893-1.006,79.827-0.368,119.744-0.313c7.602,0.01,12.771,4.85,12.898,11.389
		c0.136,6.918-5.323,11.775-13.685,11.789c-37.011,0.058-74.021,0.021-111.032,0.027c-37.519,0.007-62.368,24.731-62.375,62.075
		c-0.01,57.163-0.013,114.328,0.001,171.491c0.009,36.697,24.955,61.72,61.539,61.744c23.059,0.017,46.118,0.077,69.177-0.049
		c5.654-0.03,9.554,2.051,13.483,6.313c8.621,9.352,18.092,17.922,27.887,27.468c0-6.739-0.046-13.008,0.011-19.275
		c0.091-10.193,4.333-14.43,14.637-14.438c39.53-0.035,79.06-0.007,118.59-0.018c37.1-0.009,62.053-24.854,62.071-61.797
		c0.011-24.027-0.011-48.056,0.022-72.083c0.003-2.312,0.007-4.686,0.502-6.922c1.207-5.44,6.045-9.188,11.296-9.085
		c5.069,0.1,9.599,3.697,10.867,8.894c0.452,1.853,0.543,3.831,0.545,5.753c0.031,25.577,0.192,51.157-0.022,76.734
		c-0.332,39.262-26.026,71.178-64.306,79.743c-6.544,1.463-13.432,1.899-20.165,1.933c-36.617,0.18-73.236,0.086-110.806,0.086
		c0,5.3,0.001,10.438,0,15.575c-0.001,6.589-0.319,13.197,0.08,19.761c0.433,7.107-1.873,12.42-8.224,15.821
		c-2.325,0-4.65,0-6.977,0c-3.874-3.43-7.914-6.689-11.592-10.316c-12.53-12.359-24.822-24.962-37.492-37.175
		c-2.068-1.992-5.571-3.47-8.435-3.51c-22.625-0.315-45.282,0.469-67.877-0.435c-28.414-1.137-50.992-14.137-65.521-38.588
		c-5.953-10.02-12.549-21.36-12.549-33.219C-10.378,531.66-10.378,468.883-10.378,398.855z"/>
	<path fill-rule="evenodd" clip-rule="evenodd" d="M186.11,508.146c-39.139,0-78.278,0.002-117.417-0.009
		c-1.935,0-3.897,0.081-5.799-0.2c-6.065-0.896-10.396-5.738-10.394-11.42c0.001-5.685,4.331-10.523,10.399-11.417
		c1.901-0.28,3.864-0.2,5.799-0.201c78.665-0.008,157.33-0.007,235.995-0.007c0.388,0,0.775-0.002,1.162,0
		c9.428,0.054,15.033,4.391,15.03,11.629c-0.001,7.238-5.605,11.613-15.035,11.616C265.937,508.155,226.023,508.146,186.11,508.146z
		"/>
	<path fill-rule="evenodd" clip-rule="evenodd" d="M164.596,550.001c31.568,0,63.137-0.021,94.704,0.037
		c2.679,0.005,5.47,0.146,8.012,0.894c5.044,1.484,7.61,5.399,7.691,10.45c0.085,5.303-2.479,9.4-7.774,10.966
		c-2.539,0.751-5.335,0.87-8.015,0.871c-63.524,0.045-127.048,0.035-190.571,0.035c-0.581,0-1.162,0.005-1.743-0.001
		c-8.894-0.099-14.433-4.589-14.399-11.669c0.032-7.076,5.555-11.562,14.485-11.57C99.523,549.981,132.059,550.001,164.596,550.001z
		"/>
	<path fill-rule="evenodd" clip-rule="evenodd" d="M148.321,443.036c-26.543,0-53.087,0.004-79.631-0.008
		c-1.935,0-3.896,0.079-5.799-0.201c-6.064-0.896-10.395-5.741-10.391-11.422c0.002-5.684,4.333-10.521,10.4-11.415
		c1.902-0.28,3.865-0.2,5.8-0.201c53.475-0.009,106.949-0.007,160.423-0.007c0.388,0,0.775-0.002,1.163,0
		c9.425,0.053,15.031,4.393,15.027,11.631s-5.607,11.607-15.038,11.614C202.957,443.05,175.639,443.036,148.321,443.036z"/>
	<path fill-rule="evenodd" clip-rule="evenodd" d="M320.883,561.687c-0.04,6.024-5.582,11.511-11.589,11.471
		c-6.024-0.04-11.51-5.583-11.471-11.589c0.04-6.024,5.583-11.511,11.59-11.471C315.438,550.137,320.923,555.679,320.883,561.687z"
		/>
	<path fill-rule="evenodd" clip-rule="evenodd" d="M392.983,314.728c0-4.455-0.129-8.914,0.027-13.363
		c0.338-9.598,5.729-16.808,14.854-20.092c1.637-0.589,3.315-1.058,4.956-1.636c12.211-4.3,19.361-16.296,17.217-28.862
		c-2.117-12.398-13.327-21.731-25.864-21.531c-13.053,0.208-23.482,9.586-25.267,22.697c-0.235,1.726-0.505,3.451-0.864,5.154
		c-1.366,6.456-6.164,9.997-12.576,9.332c-5.803-0.603-10.082-5.281-10.003-11.54c0.187-14.726,5.668-27.333,16.939-36.767
		c16.027-13.414,34.31-16.235,53.106-7.164c19.184,9.258,28.458,25.477,27.95,46.94c-0.443,18.747-13.744,36.976-31.839,43.102
		c-4.203,1.422-5.827,3.22-5.534,7.684c0.404,6.171,0.168,12.39,0.083,18.587c-0.123,8.864-4.792,14.424-11.87,14.3
		c-6.918-0.12-11.26-5.466-11.357-14.059c-0.049-4.26-0.009-8.521-0.009-12.782C392.948,314.728,392.966,314.728,392.983,314.728z"
		/>
	<path fill-rule="evenodd" clip-rule="evenodd" d="M416.03,375.817c0.124,6.092-5.185,11.48-11.393,11.563
		c-6.36,0.084-11.539-4.917-11.628-11.227c-0.087-6.272,5.039-11.566,11.291-11.661C410.415,364.399,415.906,369.702,416.03,375.817
		z"/>
</g>
</svg>
