<svg width="90" height="100" viewBox="0 0 90 100" fill="none" xmlns="http://www.w3.org/2000/svg">
<path d="M50.6954 21.3861C50.62 21.4013 50.5423 21.4086 50.4646 21.4075L34.4731 21.1315C34.0864 21.1247 33.7336 20.9111 33.5516 20.5733L33.517 20.5103C33.3644 20.2293 33.3497 19.8954 33.4745 19.6014L39.3433 5.76988C39.5117 5.3719 39.9098 5.11782 40.3448 5.12288L45.1572 5.20663C45.5932 5.21394 45.9806 5.48376 46.1354 5.88792L51.5154 19.9139C51.6294 20.2113 51.6022 20.5441 51.4411 20.8189L51.4054 20.8802C51.2511 21.145 50.9908 21.3265 50.6954 21.3861ZM36.0241 19.0443L48.9862 19.2681L44.3984 7.30784L41.0293 7.24938L36.0241 19.0443Z" fill="#164284"/>
<path d="M45.3835 7.2364C45.3081 7.25158 45.2298 7.25889 45.1521 7.25776L40.3409 7.17457C39.987 7.16838 39.6592 6.98851 39.4658 6.69452C39.2719 6.40109 39.2396 6.03122 39.3768 5.708L41.318 1.13291C41.6236 0.411711 42.2026 -0.0115639 42.8741 0.000240552C43.5421 0.0120451 44.1086 0.455558 44.3882 1.18575L46.1678 5.82492C46.2937 6.15263 46.2477 6.52082 46.0436 6.80806C45.8848 7.03123 45.6472 7.183 45.3835 7.2364ZM41.952 5.08798L43.6153 5.11665L42.8196 3.04412L41.952 5.08798Z" fill="#164284"/>
<path d="M49.7229 82.1459C49.6474 82.161 49.5703 82.1678 49.4909 82.1666L33.3679 81.8901C33.0849 81.8833 32.8161 81.7681 32.6193 81.5663C32.4231 81.3656 32.3159 81.0941 32.3205 80.8142L33.3803 20.4622C33.3849 20.1817 33.5023 19.9153 33.7059 19.7208C33.9089 19.5257 34.1822 19.4189 34.4652 19.424L50.5883 19.7028C51.1775 19.7129 51.6459 20.1947 51.6362 20.7781L50.5758 81.1284C50.5667 81.6332 50.2026 82.0492 49.7229 82.1459ZM34.4714 79.7945L48.4628 80.0351L49.4858 21.7984L35.4939 21.5567L34.4714 79.7945Z" fill="#164284"/>
<path d="M44.2822 82.0498C44.2074 82.0639 44.1291 82.0718 44.0503 82.0706L38.6062 81.9762C38.3232 81.9717 38.0538 81.8553 37.8576 81.6547C37.6608 81.4529 37.5537 81.1814 37.5588 80.9014L38.6175 20.6085C38.6283 20.025 39.116 19.5607 39.7024 19.5697L45.1459 19.6636C45.4289 19.6686 45.6988 19.7839 45.8945 19.9862C46.0901 20.1886 46.1979 20.4584 46.1933 20.7389L45.1351 81.0324C45.1261 81.5372 44.7614 81.9537 44.2822 82.0498ZM39.7098 79.8817L43.0216 79.9391L44.0423 21.7597L40.7311 21.7024L39.7098 79.8817Z" fill="#164284"/>
<path d="M49.6514 86.2594C49.5754 86.2734 49.4983 86.2813 49.4212 86.2802L33.2976 86.0025C33.0146 85.9968 32.7452 85.8816 32.549 85.6798C32.3522 85.478 32.2451 85.2076 32.2502 84.9277L32.3222 80.8141C32.333 80.2312 32.8195 79.7646 33.407 79.7753L49.5306 80.053C49.8136 80.0586 50.0824 80.1739 50.2786 80.3757C50.4749 80.5763 50.5826 80.8478 50.5775 81.1278L50.506 85.2414C50.5004 85.5224 50.3835 85.7894 50.18 85.9834C50.0325 86.1239 49.8494 86.2183 49.6514 86.2594ZM34.4006 83.9063L48.3914 84.148L48.4265 82.1475L34.4352 81.9069L34.4006 83.9063Z" fill="#164284"/>
<path d="M17.3083 26.3343C17.2369 26.3618 17.162 26.3815 17.0843 26.3933L1.26977 28.7643C0.888118 28.8217 0.504196 28.6693 0.267718 28.3664L0.223483 28.3096C0.0261341 28.0578 -0.0453207 27.7312 0.0284015 27.4203L3.48881 12.812C3.58805 12.3915 3.93795 12.075 4.36781 12.0087L9.12686 11.2954C9.55785 11.2307 9.98544 11.4331 10.206 11.8058L17.8703 24.7463C18.0325 25.0206 18.0614 25.3528 17.9491 25.6508L17.9236 25.7177C17.8159 26.0043 17.5902 26.2264 17.3083 26.3343ZM2.44876 26.4495L15.2674 24.5282L8.73216 13.4932L5.39935 13.9924L2.44876 26.4495Z" fill="#164284"/>
<path d="M9.68935 13.2599C9.6179 13.2874 9.54247 13.3076 9.46478 13.3189L4.70629 14.0322C4.3564 14.0845 4.00253 13.9619 3.76322 13.7039C3.52277 13.4459 3.42806 13.0873 3.50859 12.7455L4.65356 7.91353C4.83333 7.15241 5.33293 6.63864 5.997 6.5397C6.65767 6.44077 7.29111 6.78422 7.68978 7.4582L10.2247 11.7388C10.4039 12.0412 10.4198 12.4122 10.2678 12.7286C10.1493 12.976 9.94058 13.1643 9.68935 13.2599ZM5.94483 11.7095L7.58883 11.4633L6.45578 9.55155L5.94483 11.7095Z" fill="#164284"/>
<path d="M26.5725 86.404C26.501 86.4309 26.4256 86.4512 26.3473 86.4624L10.4041 88.8542C10.1239 88.8958 9.83923 88.8256 9.61183 88.6592C9.38385 88.4928 9.23301 88.2443 9.18991 87.9672L0.0823853 28.2847C0.0398533 28.0071 0.11074 27.7249 0.2786 27.5C0.44646 27.2741 0.697684 27.124 0.977261 27.0818L16.9217 24.6917C17.5041 24.6046 18.0473 25.0014 18.1358 25.5787L27.2422 85.2595C27.3188 85.7587 27.029 86.2286 26.5725 86.404ZM11.139 86.6052L24.9744 84.5304L16.1867 26.9396L2.35076 29.0133L11.139 86.6052Z" fill="#164284"/>
<path d="M21.1905 87.2089C21.119 87.2359 21.0441 87.255 20.9653 87.2673L15.5819 88.0751C15.3023 88.1167 15.0171 88.0464 14.7897 87.88C14.5623 87.7148 14.4108 87.4652 14.3677 87.1881L5.26986 27.5635C5.18196 26.9868 5.5846 26.4477 6.16473 26.3606L11.5476 25.5528C11.8277 25.5112 12.1124 25.5804 12.3398 25.7473C12.5672 25.9143 12.7186 26.1627 12.7612 26.4398L21.8596 86.0638C21.9362 86.5636 21.6464 87.034 21.1905 87.2089ZM16.3168 85.826L19.5924 85.3353L10.8121 27.8019L7.53767 28.2932L16.3168 85.826Z" fill="#164284"/>
<path d="M27.1951 90.4707C27.1231 90.4994 27.0483 90.5185 26.9711 90.5303L11.0262 92.921C10.7466 92.9626 10.4613 92.8923 10.2345 92.7259C10.0065 92.5595 9.85512 92.3111 9.81259 92.0339L9.19162 87.9665C9.10429 87.3897 9.50579 86.8506 10.0865 86.7635L26.0309 84.3712C26.311 84.3307 26.5957 84.3998 26.8231 84.5662C27.0505 84.7326 27.2019 84.9816 27.2445 85.2587L27.866 89.3268C27.908 89.6039 27.8371 89.8867 27.6692 90.1115C27.5479 90.2751 27.3829 90.3993 27.1951 90.4707ZM11.7617 90.6725L25.5971 88.5988L25.2954 86.6202L11.4594 88.695L11.7617 90.6725Z" fill="#164284"/>
<path d="M88.2938 38.6583C88.2173 38.6493 88.1407 38.6325 88.0676 38.6072L72.9557 33.4154C72.5905 33.2895 72.3228 32.9787 72.2553 32.6009L72.2434 32.5307C72.1861 32.2164 72.2769 31.8943 72.4872 31.6538L82.4051 20.3169C82.6898 19.9903 83.148 19.8717 83.5592 20.0111L88.1078 21.5738C88.519 21.7149 88.8031 22.091 88.8235 22.5227L89.5369 37.5122C89.5516 37.8298 89.4218 38.1372 89.1819 38.3492L89.128 38.3964C88.8972 38.6004 88.5921 38.6926 88.2938 38.6583ZM75.0851 31.9095L87.3343 36.1181L86.7269 23.3366L83.5427 22.2422L75.0851 31.9095Z" fill="#164284"/>
<path d="M87.6821 23.573C87.6056 23.564 87.529 23.5471 87.4559 23.5218L82.9089 21.9597C82.5743 21.845 82.3186 21.573 82.2278 21.2335C82.136 20.8945 82.2205 20.5331 82.4524 20.2677L85.733 16.5184C86.2491 15.9276 86.9319 15.7033 87.5659 15.9214C88.1976 16.1384 88.5974 16.7348 88.6343 17.5156L88.8702 22.4729C88.8861 22.8237 88.7262 23.1587 88.4432 23.3689C88.2232 23.5331 87.9487 23.6033 87.6821 23.573ZM85.0945 20.474L86.6659 21.0137L86.5593 18.7984L85.0945 20.474Z" fill="#164284"/>
<path d="M68.3094 96.107C68.2328 96.0969 68.1563 96.0812 68.082 96.0542L52.8459 90.8214C52.5782 90.7292 52.3599 90.5358 52.2357 90.2835C52.1126 90.0316 52.0951 89.7404 52.1875 89.4762L72.1293 32.4431C72.2218 32.1777 72.4163 31.9608 72.6709 31.8382C72.925 31.7157 73.2182 31.6988 73.4858 31.7904L88.7219 37.0249C89.2783 37.216 89.5743 37.8186 89.3809 38.3695L69.4396 95.401C69.2729 95.8799 68.7954 96.1621 68.3094 96.107ZM54.5517 89.1699L67.7735 93.7113L87.0167 38.6775L73.7949 34.1339L54.5517 89.1699Z" fill="#164284"/>
<path d="M63.1667 94.338C63.0901 94.3284 63.0147 94.311 62.9399 94.2857L57.7952 92.519C57.5275 92.4268 57.3086 92.2328 57.1856 91.9804C57.0608 91.7303 57.0449 91.4386 57.1368 91.1738L77.0599 34.1963C77.2533 33.6448 77.8612 33.3531 78.417 33.5437L83.5599 35.3104C83.8282 35.4032 84.0471 35.596 84.1707 35.8483C84.2943 36.1013 84.3108 36.3908 84.2189 36.6561L64.2958 93.6336C64.1296 94.1109 63.6527 94.3931 63.1667 94.338ZM59.5004 90.8669L62.6308 91.9428L81.853 36.9625L78.7243 35.8866L59.5004 90.8669Z" fill="#164284"/>
<path d="M66.9489 99.9928C66.8717 99.9843 66.7963 99.9669 66.7232 99.9422L51.4859 94.7077C51.2188 94.6166 50.9994 94.4227 50.8763 94.1703C50.7533 93.9185 50.7357 93.6273 50.8281 93.3626L52.1869 89.4761C52.3803 88.9246 52.9887 88.6318 53.5439 88.8229L68.7811 94.0562C69.0483 94.1501 69.2671 94.3418 69.3908 94.5942C69.5133 94.846 69.5308 95.1372 69.439 95.4019L68.0802 99.2901C67.9878 99.5554 67.7921 99.7718 67.5381 99.8938C67.3526 99.9832 67.1491 100.016 66.9489 99.9928ZM53.1918 93.0562L66.4124 97.5992L67.0742 95.7088L53.8519 91.1675L53.1918 93.0562Z" fill="#164284"/>
</svg>
