<svg width="121" height="120" viewBox="0 0 121 120" fill="none" xmlns="http://www.w3.org/2000/svg">
<path d="M2 92H119" stroke="#164284" stroke-width="3" stroke-linecap="round" stroke-linejoin="round"/>
<path d="M85 92C85 92 79.4805 110.871 60 118" stroke="#164284" stroke-width="3" stroke-linecap="round" stroke-linejoin="round"/>
<path d="M36 92C36 92 41.2987 110.871 60 118" stroke="#164284" stroke-width="3" stroke-linecap="round" stroke-linejoin="round"/>
<path d="M96 106H25" stroke="#164284" stroke-width="3" stroke-linecap="round" stroke-linejoin="round"/>
<path d="M8 92V76.14L17.643 70L27 75.8278V92" stroke="#164284" stroke-width="3" stroke-linecap="round" stroke-linejoin="round"/>
<path d="M27 75.8125V64.8333L41.0958 53L55 64.625V92" stroke="#164284" stroke-width="3" stroke-linecap="round" stroke-linejoin="round"/>
<path d="M55 64.8493V49.7036L70.6808 34H82V92" stroke="#164284" stroke-width="3" stroke-linecap="round" stroke-linejoin="round"/>
<path d="M82 33.1976V20H113V92" stroke="#164284" stroke-width="3" stroke-linecap="round" stroke-linejoin="round"/>
<path d="M110 20V12H86V20" stroke="#164284" stroke-width="3" stroke-linecap="round" stroke-linejoin="round"/>
<path d="M20 82H16V92H20V82Z" stroke="#164284" stroke-width="3" stroke-linecap="round" stroke-linejoin="round"/>
<path d="M43 82H39V92H43V82Z" stroke="#164284" stroke-width="3" stroke-linecap="round" stroke-linejoin="round"/>
<path d="M108 41H104V51H108V41Z" stroke="#164284" stroke-width="3" stroke-linecap="round" stroke-linejoin="round"/>
<path d="M108 27H104V37H108V27Z" stroke="#164284" stroke-width="3" stroke-linecap="round" stroke-linejoin="round"/>
<path d="M100 41H96V51H100V41Z" stroke="#164284" stroke-width="3" stroke-linecap="round" stroke-linejoin="round"/>
<path d="M92 41H88V51H92V41Z" stroke="#164284" stroke-width="3" stroke-linecap="round" stroke-linejoin="round"/>
<path d="M100 27H96V37H100V27Z" stroke="#164284" stroke-width="3" stroke-linecap="round" stroke-linejoin="round"/>
<path d="M92 27H88V37H92V27Z" stroke="#164284" stroke-width="3" stroke-linecap="round" stroke-linejoin="round"/>
<path d="M108 69H104V78H108V69Z" stroke="#164284" stroke-width="3" stroke-linecap="round" stroke-linejoin="round"/>
<path d="M108 55H104V64H108V55Z" stroke="#164284" stroke-width="3" stroke-linecap="round" stroke-linejoin="round"/>
<path d="M100 69H96V78H100V69Z" stroke="#164284" stroke-width="3" stroke-linecap="round" stroke-linejoin="round"/>
<path d="M92 69H88V78H92V69Z" stroke="#164284" stroke-width="3" stroke-linecap="round" stroke-linejoin="round"/>
<path d="M100 55H96V64H100V55Z" stroke="#164284" stroke-width="3" stroke-linecap="round" stroke-linejoin="round"/>
<path d="M92 55H88V64H92V55Z" stroke="#164284" stroke-width="3" stroke-linecap="round" stroke-linejoin="round"/>
<path d="M77 69H73V78H77V69Z" stroke="#164284" stroke-width="3" stroke-linecap="round" stroke-linejoin="round"/>
<path d="M100 82H96V92H100V82Z" stroke="#164284" stroke-width="3" stroke-linecap="round" stroke-linejoin="round"/>
<path d="M71 82H67V92H71V82Z" stroke="#164284" stroke-width="3" stroke-linecap="round" stroke-linejoin="round"/>
<path d="M64 69H60V78H64V69Z" stroke="#164284" stroke-width="3" stroke-linecap="round" stroke-linejoin="round"/>
<path d="M77 41H73V51H77V41Z" stroke="#164284" stroke-width="3" stroke-linecap="round" stroke-linejoin="round"/>
<path d="M77 55H73V64H77V55Z" stroke="#164284" stroke-width="3" stroke-linecap="round" stroke-linejoin="round"/>
<path d="M64 55H60V64H64V55Z" stroke="#164284" stroke-width="3" stroke-linecap="round" stroke-linejoin="round"/>
<path d="M49 69H45V78H49V69Z" stroke="#164284" stroke-width="3" stroke-linecap="round" stroke-linejoin="round"/>
<path d="M36 69H32V78H36V69Z" stroke="#164284" stroke-width="3" stroke-linecap="round" stroke-linejoin="round"/>
<path d="M109 92C103.721 99.9879 96.5238 106.546 88.0575 111.085C79.5911 115.624 70.1211 118 60.5 118C50.8789 118 41.4089 115.624 32.9425 111.085C24.4762 106.546 17.2793 99.9879 12 92" stroke="#164284" stroke-width="3" stroke-linecap="round" stroke-linejoin="round"/>
<path d="M98 12V2" stroke="#164284" stroke-width="3" stroke-linecap="round" stroke-linejoin="round"/>
<path d="M4 62V50.8245L33.4107 24.5612L45.1665 34.5296L63.2638 14.4471L56.9645 9.82705L77 4L74.9986 23.4582L69.3102 19.6498L45.0822 45.4137L33.5582 35.5701L4 62Z" stroke="#164284" stroke-width="3" stroke-linecap="round" stroke-linejoin="round"/>
</svg>
