<svg width="95" height="93" viewBox="0 0 95 93" fill="none" xmlns="http://www.w3.org/2000/svg">
<g clip-path="url(#clip0)">
<path d="M93.3393 51.1144C91.558 48.8663 88.708 47.8015 85.9768 48.2747C83.483 45.5534 79.3268 44.8434 76.1205 46.8549L75.5268 47.2099C73.033 44.9618 69.233 44.4885 66.1455 46.2633L49.8768 55.4923L44.4143 54.7824L52.133 49.3396C54.1518 47.9198 55.458 45.5534 55.458 42.9503C55.458 42.477 55.458 41.8854 55.3393 41.4121C54.508 37.2709 50.4705 34.5495 46.3143 35.2595L44.6518 35.4961C37.883 36.6793 31.4705 39.1641 25.7705 43.0686C25.1768 43.5419 24.9393 44.3702 25.4143 44.9618C25.8893 45.5534 26.7205 45.79 27.3143 45.3167C32.658 41.6488 38.7143 39.2824 45.008 38.2175L46.6705 37.9808C49.4018 37.5076 51.8955 39.2824 52.4893 41.8854C52.608 42.2404 52.608 42.5953 52.608 42.9503C52.608 44.6068 51.7768 46.145 50.4705 47.0915L39.9018 54.6641C39.4268 55.019 39.1893 55.6106 39.308 56.0839C39.4268 56.5572 39.9018 57.0305 40.4955 57.1488L68.8768 60.6984C69.233 60.6984 69.4705 60.6984 69.8268 60.4618L84.5518 51.5877C86.6893 50.2862 89.5393 50.7595 91.2018 52.7709C91.9143 53.7175 92.2705 54.7824 92.2705 55.8473C92.2705 57.1488 91.7955 58.332 90.9643 59.2786L77.4268 74.0686C76.1205 75.4885 74.458 76.4351 72.558 76.6717L32.658 81.6412L31.4705 79.6297L16.3893 53.5992L22.8018 48.6297C23.3955 48.1564 23.5143 47.3282 23.0393 46.7366C22.5643 46.145 21.733 46.0266 21.1393 46.4999L13.7768 52.061L0.595508 60.4618C0.00175787 60.8167 -0.235742 61.645 0.120508 62.3549L17.458 92.29C17.6955 92.645 17.933 92.8816 18.2893 92.9999C18.408 92.9999 18.5268 92.9999 18.6455 92.9999C18.883 92.9999 19.1205 92.8816 19.358 92.7633L32.3018 84.5992L72.7955 79.5114C75.408 79.1564 77.6643 77.9732 79.4455 76.0801L92.8643 61.29C94.1705 59.8702 94.883 57.977 94.883 56.0839C95.0018 54.1908 94.408 52.416 93.3393 51.1144ZM67.5705 48.5114C69.233 47.4465 71.2518 47.5648 72.9143 48.5114L58.9018 56.5572L54.508 55.9656L67.5705 48.5114ZM68.758 57.8587L63.4143 57.1488L77.4268 49.103C79.208 48.0381 81.3455 48.1564 83.008 49.3396L68.758 57.8587ZM19.1205 89.5686L3.20801 62.1182L14.0143 55.2557L28.9768 81.1679L29.9268 82.706L19.1205 89.5686Z" fill="#164284"/>
<path d="M21.6148 77.145C19.2398 77.145 17.3398 79.0382 17.3398 81.4046C17.3398 83.771 19.2398 85.6641 21.6148 85.6641C23.9898 85.6641 25.8898 83.771 25.8898 81.4046C25.8898 79.0382 23.8711 77.145 21.6148 77.145ZM21.6148 82.8244C20.7836 82.8244 20.1898 82.2328 20.1898 81.4046C20.1898 80.5763 20.7836 79.9847 21.6148 79.9847C22.4461 79.9847 23.0398 80.5763 23.0398 81.4046C23.0398 82.2328 22.4461 82.8244 21.6148 82.8244Z" fill="#164284"/>
<path d="M42.7516 21.7709C43.3453 22.3625 43.5828 23.1907 43.4641 24.019L42.7516 28.1602C42.3953 30.1717 43.2266 32.1831 44.8891 33.3663C45.8391 34.0762 46.9078 34.4312 47.9766 34.4312C48.8078 34.4312 49.6391 34.1946 50.4703 33.8396L54.1516 31.9465C54.8641 31.5915 55.8141 31.5915 56.5266 31.9465L60.2078 33.8396C61.9891 34.7862 64.1266 34.6678 65.7891 33.4846C67.4516 32.3014 68.2828 30.29 67.9266 28.2785L67.2141 24.1373C67.0953 23.3091 67.3328 22.4808 67.9266 21.8892L70.8953 18.9312C72.3203 17.5114 72.9141 15.4999 72.2016 13.4885C71.4891 11.477 69.9453 10.1755 67.9266 9.93883L66.5016 9.70219C65.7891 9.58387 65.0766 10.1755 64.9578 10.8854C64.8391 11.5953 65.3141 12.3052 66.1453 12.4236L67.5703 12.6602C68.5203 12.7785 69.3516 13.4885 69.5891 14.3167C69.9453 15.2633 69.7078 16.2098 68.9953 16.9198L66.0266 19.8778C64.7203 21.061 64.2453 22.8358 64.4828 24.4923L65.1953 28.6335C65.3141 29.5801 64.9578 30.5266 64.2453 31.1182C63.4141 31.7098 62.4641 31.7098 61.6328 31.3549L57.9516 29.4617C56.4078 28.6335 54.5078 28.6335 52.9641 29.4617L49.2828 31.3549C48.4516 31.8281 47.3828 31.7098 46.6703 31.1182C45.8391 30.5266 45.4828 29.5801 45.7203 28.6335L46.4328 24.4923C46.7891 22.8358 46.1953 21.061 44.8891 19.8778L41.9203 16.9198C41.2078 16.2098 40.9703 15.2633 41.3266 14.3167C41.6828 13.3701 42.3953 12.7785 43.3453 12.6602L47.5016 12.0686C49.2828 11.832 50.7078 10.7671 51.5391 9.22891L53.4391 5.44265C53.9141 4.6144 54.7453 4.0228 55.6953 4.0228C56.6453 4.0228 57.4766 4.49608 57.9516 5.44265L59.8516 9.22891C60.0891 9.58387 60.3266 9.93883 60.5641 10.2938C61.0391 10.8854 61.9891 11.0037 62.5828 10.4121C63.1766 9.93883 63.2953 8.99227 62.7016 8.51898C62.5828 8.40066 62.4641 8.16402 62.3453 8.0457L60.4453 4.25944C59.2578 2.36631 57.4766 1.18311 55.4578 1.18311C53.4391 1.18311 51.6578 2.36631 50.7078 4.14112L48.8078 7.92738C48.4516 8.63731 47.7391 9.22891 46.9078 9.34723L42.7516 9.82051C40.7328 10.0572 39.0703 11.477 38.4766 13.3701C37.8828 15.2633 38.3578 17.393 39.7828 18.8129L42.7516 21.7709Z" fill="#164284"/>
<path d="M26.2449 8.16398L29.9262 9.93879C30.5199 10.1754 31.1137 10.2938 31.5887 10.2938C32.8949 10.2938 34.2012 9.58383 35.0324 8.40063L35.2699 8.04566C36.3387 6.27085 35.7449 4.02276 34.0824 2.83956L30.7574 0.591465C29.8074 -0.000138603 28.7387 -0.23678 27.6699 -0.000138573C26.6012 0.236503 25.7699 0.946426 25.1762 1.89299L24.7012 2.72124C24.1074 3.6678 23.9887 4.73269 24.3449 5.79757C24.5824 6.86246 25.2949 7.6907 26.2449 8.16398ZM26.9574 4.14108L27.4324 3.31284C27.5512 3.0762 27.7887 2.83956 28.1449 2.83956C28.2637 2.83956 28.2637 2.83956 28.3824 2.83956C28.6199 2.83956 28.8574 2.95788 28.9762 3.0762L32.3012 5.32429C32.7762 5.67925 32.8949 6.27085 32.6574 6.74414L32.4199 7.0991C32.1824 7.57238 31.4699 7.80902 30.9949 7.57238L27.3137 5.79757C27.0762 5.67925 26.8387 5.44261 26.7199 5.08765C26.6012 4.73269 26.8387 4.37772 26.9574 4.14108Z" fill="#164284"/>
<path d="M84.5502 30.7633L80.869 28.9885C79.0877 28.042 76.8315 28.7519 75.7627 30.5267L75.5252 30.8817C74.4565 32.6565 75.0502 34.9046 76.7127 36.0878L80.0377 38.3359C80.6315 38.8091 81.4627 39.0458 82.1752 39.0458C82.4127 39.0458 82.769 39.0458 83.0065 38.9275C84.0752 38.6908 85.0252 37.9809 85.5002 37.0343L85.9752 36.2061C86.569 35.2595 86.6877 34.1946 86.3314 33.1297C86.2127 32.0649 85.5002 31.2366 84.5502 30.7633ZM83.8377 34.7862L83.3627 35.6145C83.2439 35.8511 83.0065 36.0878 82.6502 36.0878C82.294 36.2061 82.0565 36.0878 81.819 35.9694L78.3752 33.7213C77.9002 33.3664 77.7815 32.7748 78.019 32.3015L78.2565 31.9465C78.494 31.4733 79.2065 31.2366 79.6815 31.4733L83.3627 33.2481C83.6002 33.3664 83.8377 33.603 83.9564 33.958C83.9564 34.1946 83.9565 34.5496 83.8377 34.7862Z" fill="#164284"/>
<path d="M21.4938 22.7173C22.2063 23.4273 23.1562 23.7822 24.1063 23.7822C24.225 23.7822 24.225 23.7822 24.3438 23.7822L28.3813 23.5456C30.4 23.4273 32.0625 21.6525 32.0625 19.641V19.286C32.0625 17.2746 30.5188 15.4998 28.3813 15.3815L24.3438 15.1448C23.275 15.0265 22.2063 15.4998 21.375 16.2097C20.5438 16.9196 20.1875 17.9845 20.1875 19.0494V19.996C20.1875 20.9425 20.6625 22.0074 21.4938 22.7173ZM23.0375 19.0494C23.0375 18.6944 23.1563 18.4578 23.3938 18.2212C23.6313 17.9845 23.8688 17.8662 24.1063 17.8662C24.1063 17.8662 24.1063 17.8662 24.225 17.8662L28.2625 18.1028C28.8563 18.1028 29.3313 18.5761 29.3313 19.1677V19.5227C29.3313 20.1143 28.8563 20.5876 28.2625 20.5876L24.225 20.8242C23.8688 20.8242 23.6313 20.7059 23.3938 20.4693C23.1563 20.2326 23.0375 19.996 23.0375 19.641V19.0494Z" fill="#164284"/>
<path d="M86.4531 15.145L82.4156 15.3816C80.3969 15.4999 78.7344 17.2747 78.7344 19.2862V19.6412C78.7344 21.6526 80.2781 23.4274 82.4156 23.5457L86.4531 23.7824C86.5719 23.7824 86.5719 23.7824 86.6906 23.7824C87.6406 23.7824 88.5906 23.4274 89.3031 22.7175C90.1344 22.0076 90.4906 20.9427 90.4906 19.8778V18.9312C90.4906 17.8664 90.0156 16.8015 89.3031 16.0915C88.5906 15.3816 87.5219 15.0267 86.4531 15.145ZM87.5219 18.2213C87.7594 18.458 87.8781 18.6946 87.8781 19.0496V19.9961C87.8781 20.3511 87.7594 20.5877 87.5219 20.8244C87.2844 21.061 87.0469 21.1793 86.6906 21.1793L82.6531 20.9427C82.0594 20.9427 81.5844 20.4694 81.5844 19.8778V19.5228C81.5844 18.9312 82.0594 18.458 82.6531 18.458L86.6906 18.2213C86.6906 18.2213 86.6906 18.2213 86.8094 18.2213C87.0469 17.8664 87.2844 17.9847 87.5219 18.2213Z" fill="#164284"/>
<path d="M29.9277 28.9883L26.2465 30.7631C25.2965 31.2364 24.584 32.0647 24.2277 33.1295C23.8715 34.1944 23.9902 35.2593 24.584 36.2059L25.059 37.0341C25.6527 37.9807 26.484 38.5723 27.5527 38.9273C27.7902 39.0456 28.1465 39.0456 28.384 39.0456C29.0965 39.0456 29.9277 38.8089 30.5215 38.3357L33.8465 36.0876C35.509 34.9044 36.1027 32.6563 35.034 30.8815L34.7965 30.5265C33.9652 28.7517 31.709 28.1601 29.9277 28.9883ZM32.4215 33.7211L29.0965 35.9692C28.859 36.0876 28.5027 36.2059 28.2652 36.0876C27.909 35.9692 27.6715 35.8509 27.5527 35.6143L27.0777 34.786C26.959 34.5494 26.8402 34.1944 26.959 33.9578C27.0777 33.6028 27.1965 33.3662 27.5527 33.2479L31.234 31.4731C31.3527 31.3547 31.5902 31.3547 31.709 31.3547C32.0652 31.3547 32.4215 31.5914 32.659 31.9463L32.8965 32.3013C33.0152 32.7746 32.8965 33.3662 32.4215 33.7211Z" fill="#164284"/>
<path d="M75.7651 8.40063C76.4776 9.58383 77.7838 10.2938 79.2088 10.2938C79.8026 10.2938 80.3963 10.1754 80.8713 9.93879L84.5526 8.16398C85.5026 7.6907 86.2151 6.86246 86.5713 5.79757C86.9276 4.73269 86.8088 3.6678 86.2151 2.72124L85.7401 1.89299C85.1463 0.946426 84.3151 0.236503 83.2463 -0.000138573C82.1776 -0.23678 81.1088 -0.000138603 80.1588 0.591465L76.8338 2.83956C75.1713 4.02276 74.5776 6.27085 75.6463 8.04566L75.7651 8.40063ZM78.3776 5.20597L81.7026 2.95788C81.9401 2.83956 82.0588 2.72124 82.2963 2.72124C82.4151 2.72124 82.4151 2.72124 82.5338 2.72124C82.8901 2.83956 83.1276 2.95788 83.2463 3.19452L83.7213 4.02276C83.8401 4.2594 83.9588 4.61437 83.8401 4.85101C83.7213 5.08765 83.6026 5.44261 83.2463 5.56093L79.5651 7.33574C79.0901 7.57238 78.3776 7.45406 78.1401 6.86246L77.9026 6.5075C77.7838 6.15253 77.9026 5.56093 78.3776 5.20597Z" fill="#164284"/>
</g>
<defs>
<clipPath id="clip0">
<rect width="95" height="93" fill="white"/>
</clipPath>
</defs>
</svg>
