<svg width="100" height="100" viewBox="0 0 100 100" fill="none" xmlns="http://www.w3.org/2000/svg">
<g clip-path="url(#clip0)">
<path fill-rule="evenodd" clip-rule="evenodd" d="M26.5908 100C24.5247 99.5298 23.0296 98.2364 21.6354 96.7245C20.7283 95.7502 19.7372 94.8431 18.8133 93.8856C17.9229 92.9785 17.8726 91.8194 18.6453 91.0131C19.4516 90.1732 20.6443 90.19 21.585 91.1139C22.912 92.4074 24.2055 93.7344 25.5326 95.0447C26.9436 96.4389 28.3547 96.4221 29.7993 95.0279C30.7568 94.0872 31.6975 93.1465 32.6382 92.2058C34.1669 90.6603 34.1333 89.4341 32.6046 87.8886C29.0938 84.361 25.6165 80.7998 22.1225 77.2721C19.0484 74.1813 15.9576 71.1072 12.8667 68.0331C12.4131 67.5796 11.926 67.1428 11.4052 66.7396C10.6325 66.1349 9.23825 66.1853 8.41514 66.9412C7.10488 68.1675 5.82821 69.4106 4.61874 70.7376C3.62764 71.8295 3.76203 73.2574 4.88751 74.4164C6.24817 75.8107 7.65922 77.1714 9.01988 78.5656C9.65821 79.2039 9.84299 79.9599 9.45663 80.7998C9.10387 81.6061 8.43194 82.026 7.59203 81.9085C7.12168 81.8413 6.58413 81.6061 6.23137 81.2701C4.71952 79.8423 3.24128 78.3808 1.81343 76.8522C-0.538327 74.3493 -0.555125 70.5192 1.77983 67.9995C3.0229 66.6557 4.29957 65.3622 5.64343 64.1359C7.52483 62.4225 9.7422 62.0193 12.1947 62.7249C12.5139 62.8089 13.0179 62.8425 13.2194 62.6577C15.168 60.7931 17.0662 58.8613 18.9812 56.9631C19.1156 56.8287 19.2332 56.6775 19.3508 56.5431C15.4368 52.4779 16.9654 46.7665 21.6186 44.8515C19.1156 40.5512 21.1818 35.6629 25.8517 34.3358C25.163 30.0523 26.8596 27.1798 30.8744 25.7855C30.9248 24.5929 30.8072 23.4002 31.0592 22.2915C31.8991 18.5791 35.4939 16.4457 39.2903 17.252C39.6599 17.336 40.1806 17.2184 40.483 17.0168C42.1964 15.8242 44.0778 15.9922 45.9424 16.3281C50.1588 17.084 54.3751 17.9407 58.5915 18.7135C59.381 18.8647 60.2209 18.7639 61.0105 18.8982C64.9244 19.5534 67.3266 22.9298 66.7051 26.8438C66.6715 27.0286 66.6547 27.2302 66.6379 27.5157C68.4689 28.0365 69.9807 29.0276 70.9886 30.6906C71.9965 32.3704 72.1645 34.1679 71.7613 36.0325C75.9105 37.4267 77.6407 40.5008 76.9688 44.7004C79.5557 45.4395 81.3699 47.0521 82.0587 49.6894C82.7306 52.31 81.9075 54.5609 79.9925 56.5431C81.6051 58.1557 83.2009 59.7348 84.78 61.3138C84.948 61.4818 85.1327 61.6162 85.2671 61.801C85.9727 62.7585 86.7118 62.9936 87.9716 62.5569C90.1722 61.801 92.3056 62.3553 94.0526 63.9343C95.4301 65.1774 96.7403 66.4877 98.0002 67.8651C100.369 70.4521 100.369 74.2989 97.8994 76.785C90.8441 83.9075 83.7553 90.9963 76.616 98.0348C74.0291 100.588 70.0815 100.504 67.461 97.9676C66.2851 96.8421 65.126 95.6998 64.0005 94.5239C62.0183 92.441 61.5144 90.022 62.5727 87.3343C62.7911 86.7968 62.6567 86.528 62.3039 86.1752C59.9354 83.8403 57.6004 81.4885 55.2319 79.1535C54.9967 78.9352 54.6439 78.7336 54.3247 78.7168C52.2418 78.6328 50.1588 78.5992 48.0926 78.5488C47.3367 78.532 46.564 78.4312 45.8584 78.5992C45.1361 78.7672 44.3298 79.036 43.809 79.5399C41.5917 81.6397 39.4583 83.8403 37.2745 85.9904C36.8714 86.3936 36.7874 86.6792 37.0562 87.2335C38.2824 89.8036 37.8121 92.5753 35.8467 94.6247C34.7044 95.8342 33.5957 97.0941 32.3022 98.1188C31.2608 98.9419 29.9673 99.429 28.7746 100.067C28.0355 100 27.3132 100 26.5908 100ZM32.7558 53.3179C31.8151 59.0125 27.9515 61.3138 22.6937 59.3316C22.5089 59.2644 22.1561 59.2812 22.0217 59.3988C19.9891 61.3978 17.9733 63.4304 16.0583 65.3454C22.0889 71.4096 28.0691 77.4065 34.0997 83.4539C34.3012 83.2691 34.5364 83.0507 34.7548 82.8324C36.8714 80.7158 39.0047 78.616 41.1045 76.4826C42.1628 75.4075 43.4227 74.8028 44.8841 74.6348C45.8416 74.5172 46.8327 74.5004 47.807 74.534C49.4365 74.5844 51.0491 74.7188 52.6785 74.7692C54.8791 74.8196 56.8781 74.3157 58.3227 72.4678C58.5075 72.2327 58.7259 72.0479 58.9443 71.8463C59.9186 70.9056 61.0608 70.8216 61.884 71.6111C62.7575 72.451 62.6735 73.5765 61.7328 74.6348C60.8929 75.5755 60.1201 76.5834 59.3642 77.5241C61.1784 79.3383 63.2782 81.4549 65.3612 83.5379C71.3246 77.5577 77.3048 71.5439 83.2177 65.6142C81.2355 63.6152 79.1526 61.5154 76.8848 59.2308C76.5656 59.634 76.2465 60.1211 75.8265 60.5411C75.2554 61.1122 74.5666 61.3138 73.7771 61.0282C72.3493 60.5075 72.0133 58.8613 73.1388 57.7022C74.5666 56.2239 76.0617 54.8297 77.4727 53.3346C78.5814 52.1588 78.5646 50.4622 77.5063 49.3703C76.4145 48.228 74.7178 48.1608 73.458 49.2359C72.8868 49.723 72.3997 50.2942 71.8621 50.7981C70.8542 51.7724 69.6784 51.8228 68.8552 50.9493C68.0825 50.1262 68.1665 48.9671 69.1072 48.0096C70.1823 46.9177 71.291 45.8762 72.3325 44.7507C73.458 43.5413 73.4076 41.7943 72.2821 40.7024C71.1566 39.5937 69.4768 39.5769 68.2337 40.7024C67.629 41.2567 67.0746 41.8447 66.5035 42.4158C65.4956 43.3901 64.3197 43.4909 63.4798 42.6678C62.6399 41.8447 62.7071 40.6688 63.6982 39.6609C64.8573 38.4682 66.0667 37.3427 67.1922 36.1164C68.3177 34.8902 68.2337 33.1768 67.1082 32.0849C65.9827 30.993 64.2693 31.0098 63.0598 32.1353C62.4383 32.7064 61.8672 33.3447 61.2624 33.9159C60.3049 34.823 59.1123 34.8734 58.3059 34.0503C57.4996 33.2271 57.5836 32.0513 58.5075 31.1106C59.5826 30.0187 60.6745 28.9604 61.7496 27.8685C63.127 26.4743 63.211 24.7608 62.0016 23.5346C60.7921 22.3251 59.0619 22.4091 57.6676 23.7865C56.0886 25.3488 54.5431 26.9278 52.9641 28.4732C52.4937 28.9436 52.3762 29.2796 52.6785 29.9515C54.5599 34.1175 51.8218 38.9889 47.3535 39.4425C46.5808 39.5265 46.4128 39.7953 46.3288 40.484C45.9592 43.5917 43.5067 45.9938 40.4326 46.313C39.8111 46.3802 39.5423 46.5314 39.4751 47.2201C39.2231 49.975 37.2913 52.226 34.6372 52.9651C34.0325 53.1163 33.3773 53.2003 32.7558 53.3179ZM72.0469 96.1366C72.786 95.6998 73.5587 95.4142 74.0795 94.9103C81.0004 88.0398 87.9045 81.1525 94.7917 74.2485C96.0684 72.9718 96.0516 71.5103 94.7917 70.2001C93.8342 69.2258 92.8599 68.2683 91.8856 67.3108C90.2898 65.715 88.9459 65.715 87.3501 67.3108C84.0409 70.62 80.7316 73.9293 77.4055 77.2385C73.9115 80.7326 70.4007 84.2266 66.9234 87.7207C65.5796 89.0813 65.5796 90.5428 66.9234 91.9034C67.9481 92.9449 68.956 94.02 70.0479 94.9775C70.5855 95.4479 71.291 95.7166 72.0469 96.1366ZM39.1559 42.4326C40.8022 42.399 41.7429 41.8782 42.23 40.7528C42.7508 39.5601 42.566 38.4346 41.6421 37.5107C39.3071 35.1589 36.9722 32.8072 34.6036 30.489C33.3269 29.246 31.5799 29.2628 30.4208 30.4386C29.2954 31.5977 29.3122 33.2943 30.5384 34.5542C32.8398 36.906 35.158 39.2241 37.5265 41.5087C38.0472 41.9958 38.82 42.2478 39.1559 42.4326ZM46.4464 35.7133C47.8406 35.5621 48.9829 34.655 49.2685 33.3951C49.5876 32.0345 49.1677 31.3289 47.9246 30.741C43.977 28.8932 41.0373 26.0543 39.3743 21.9723C39.2399 21.6364 38.8872 21.2836 38.5344 21.1492C37.3417 20.6957 35.9811 21.1828 35.2587 22.2075C34.5532 23.249 34.5196 24.7272 35.4099 25.6511C38.4672 28.7924 41.5917 31.8833 44.7329 34.9406C45.1529 35.3437 45.8584 35.4613 46.4464 35.7133ZM35.7459 46.3466C35.5107 45.7922 35.4099 45.1035 35.0236 44.7004C33.0918 42.6678 31.1432 40.6688 29.0938 38.7706C28.0187 37.7627 26.3053 37.9643 25.2806 39.0057C24.2727 40.0304 24.0879 41.6767 25.0622 42.735C26.994 44.8011 29.0098 46.8001 31.076 48.7319C31.9327 49.5215 33.075 49.4879 34.0997 48.9671C35.1076 48.4296 35.5947 47.5561 35.7459 46.3466ZM28.7746 53.0491C28.6906 52.7803 28.6402 52.1924 28.3379 51.8396C27.3972 50.7813 26.4397 49.7062 25.3142 48.8495C24.2055 48.0096 22.6265 48.3792 21.7194 49.4375C20.8458 50.4621 20.7787 52.058 21.6858 53.1163C22.4249 53.973 23.248 54.7793 24.1047 55.5016C24.995 56.2575 26.0533 56.3415 27.1116 55.8544C28.1699 55.3672 28.6906 54.4769 28.7746 53.0491ZM48.7813 26.8438C50.5115 25.1136 52.141 23.4674 53.8376 21.7539C50.2764 21.2164 46.7487 20.1749 42.8516 19.9397C43.9938 23.2994 46.228 25.2984 48.7813 26.8438Z" fill="#164284"/>
<path fill-rule="evenodd" clip-rule="evenodd" d="M50.2245 0C51.2659 0.520746 51.6523 1.36066 51.6355 2.53654C51.5683 5.17386 51.6187 7.81119 51.6187 10.4317C51.6187 11.8596 50.846 12.7163 49.6365 12.6827C48.4774 12.6659 47.7047 11.7924 47.7047 10.4485C47.6879 7.84478 47.7551 5.24106 47.6879 2.63733C47.6375 1.46145 48.0239 0.587939 49.0486 0C49.4517 0 49.8381 0 50.2245 0Z" fill="#164284"/>
<path fill-rule="evenodd" clip-rule="evenodd" d="M15.5703 2.41893C16.0407 1.831 16.3598 1.17586 16.8806 0.806303C17.5357 0.335952 18.3252 0.453539 18.9636 0.974285C19.4843 1.41104 19.9547 1.89819 20.4418 2.38534C22.3736 4.31714 24.3054 6.23214 26.2204 8.16394C26.9763 8.91986 27.0939 9.86056 26.6068 10.6501C26.1028 11.4732 25.3469 11.7588 24.4398 11.5236C24.0534 11.4228 23.6839 11.154 23.3815 10.8685C21.0969 8.61749 18.8124 6.34973 16.5614 4.04837C16.175 3.66201 15.9735 3.10766 15.5703 2.41893Z" fill="#164284"/>
<path fill-rule="evenodd" clip-rule="evenodd" d="M72.1992 9.81021C72.5856 9.12149 72.7536 8.56714 73.1063 8.19758C75.4077 5.84583 77.7258 3.52767 80.0776 1.22631C80.9679 0.335999 82.1438 0.335999 82.9333 1.12552C83.7228 1.91504 83.706 3.10771 82.8157 3.99802C80.4976 6.33298 78.1794 8.65114 75.8444 10.9693C75.2061 11.6076 74.3662 11.8596 73.6103 11.406C73.0559 11.0701 72.6864 10.3814 72.1992 9.81021Z" fill="#164284"/>
<path fill-rule="evenodd" clip-rule="evenodd" d="M13.4867 87.922C12.4116 87.9052 11.5717 87.0821 11.5549 86.007C11.5381 84.9319 12.462 83.9912 13.5371 84.008C14.5786 84.0248 15.4521 84.8983 15.4689 85.9566C15.4857 87.0653 14.6122 87.9388 13.4867 87.922Z" fill="#164284"/>
<path fill-rule="evenodd" clip-rule="evenodd" d="M66.7542 68.7719C65.6791 68.7887 64.8224 67.9656 64.8056 66.8905C64.772 65.7818 65.6623 64.8747 66.7542 64.8579C67.7789 64.8579 68.686 65.7314 68.7364 66.7729C68.7532 67.848 67.8629 68.7551 66.7542 68.7719Z" fill="#164284"/>
</g>
<defs>
<clipPath id="clip0">
<rect width="99.6976" height="100" fill="white"/>
</clipPath>
</defs>
</svg>
