<svg width="180" height="180" viewBox="0 0 180 180" fill="none" xmlns="http://www.w3.org/2000/svg">
<g clip-path="url(#clip0)">
<path fill-rule="evenodd" clip-rule="evenodd" d="M178.428 63.6181C175.858 73.7777 170.596 82.3347 162.705 89.259C161.465 90.3475 160.921 91.4663 160.951 93.1293C161.072 98.8743 160.981 104.619 161.011 110.364C161.011 112.148 160.588 113.66 158.804 114.386C157.02 115.111 155.629 114.356 154.389 113.086C150.58 109.276 146.739 105.496 142.96 101.656C142.204 100.87 141.539 100.568 140.39 100.87C132.951 102.654 125.392 102.352 117.833 102.11C108.55 101.777 99.963 99.086 92.2526 93.9759C79.7043 85.6608 71.873 74.0801 69.6355 59.1128C66.8839 40.5172 72.7801 24.8545 86.7798 12.4271C94.7018 5.38195 104.136 1.51164 114.688 0.332398C115.263 0.271924 115.837 0.12074 116.382 0.0300293C121.764 0.0300293 127.176 0.0300293 132.558 0.0300293C133.133 0.12074 133.707 0.21145 134.252 0.332398C137.668 1.05808 141.236 1.39069 144.532 2.53969C162.432 8.79872 173.922 21.1051 178.609 39.5496C179.274 42.15 180.03 49.9511 180.03 52.6422C180 55.9984 179.123 60.8666 178.428 63.6181ZM153.966 102.714C153.966 99.1464 154.238 96.0925 153.906 93.0688C153.482 89.0171 155.055 86.4167 158.139 83.8163C166.575 76.6805 171.292 67.3373 172.592 56.3915C174.013 44.327 170.959 33.3813 163.43 23.8264C156.446 14.967 147.314 9.37322 136.126 7.77066C130.774 7.01474 125.271 7.10545 119.829 7.04498C113.781 6.98451 107.915 8.16374 102.442 10.7036C87.9892 17.4465 78.9786 28.6039 76.5899 44.448C74.0803 61.1689 79.8253 74.9872 92.8271 85.6608C100.205 91.7082 108.822 94.7621 118.377 95.0645C125.937 95.3063 133.496 95.6692 140.874 93.4619C143.051 92.8269 144.714 93.3107 146.225 94.9435C148.644 97.4834 151.184 99.9024 153.966 102.714Z" fill="#164284"/>
<path fill-rule="evenodd" clip-rule="evenodd" d="M0 82.97C0 79.3718 1.99563 75.955 3.80984 72.9011C8.16395 65.5536 14.9672 61.5018 23.494 61.2902C35.5585 60.9878 47.623 61.1692 59.6875 61.1994C61.9855 61.1994 63.5578 62.681 63.5881 64.6464C63.6183 66.7328 61.9855 68.2144 59.4456 68.2144C48.258 68.2446 37.0704 68.2144 25.8827 68.2144C14.5439 68.2144 7.01495 75.6829 7.01495 86.9915C7.01495 104.287 7.01495 121.552 7.01495 138.848C7.01495 149.945 14.5742 157.504 25.6106 157.504C32.5953 157.504 39.5498 157.534 46.5345 157.504C48.258 157.504 49.4372 158.139 50.6165 159.409C53.2168 162.251 56.0893 164.821 59.0526 167.724C59.0526 165.698 59.0526 163.793 59.0526 161.888C59.0828 158.804 60.3527 157.534 63.4671 157.534C75.4107 157.534 87.3845 157.534 99.328 157.534C110.546 157.534 118.105 150.005 118.105 138.848C118.105 131.591 118.105 124.304 118.105 117.047C118.105 116.351 118.105 115.626 118.256 114.961C118.619 113.328 120.07 112.179 121.673 112.209C123.215 112.239 124.576 113.328 124.969 114.9C125.12 115.475 125.12 116.049 125.12 116.654C125.12 124.394 125.181 132.135 125.12 139.846C125.029 151.729 117.258 161.374 105.678 163.944C103.712 164.398 101.626 164.519 99.5699 164.519C88.5032 164.579 77.4365 164.549 66.0675 164.549C66.0675 166.152 66.0675 167.694 66.0675 169.266C66.0675 171.262 65.9768 173.257 66.0977 175.253C66.2187 177.4 65.5232 179.002 63.6183 180.03C62.9229 180.03 62.2274 180.03 61.5017 180.03C60.3225 179.002 59.113 178.004 57.9943 176.916C54.2147 173.167 50.4955 169.357 46.6554 165.668C46.0205 165.063 44.9622 164.61 44.1155 164.61C37.282 164.519 30.4183 164.761 23.5847 164.489C14.9975 164.156 8.16395 160.225 3.7796 152.817C1.99563 149.733 0 146.316 0 142.718C0 123.125 0 104.136 0 82.97Z" fill="#164284"/>
<path fill-rule="evenodd" clip-rule="evenodd" d="M59.4155 116.019C47.5929 116.019 35.7401 116.019 23.9175 116.019C23.343 116.019 22.7382 116.049 22.1637 115.958C20.3193 115.686 19.0191 114.235 19.0191 112.511C19.0191 110.788 20.3193 109.336 22.1637 109.064C22.7382 108.974 23.343 109.004 23.9175 109.004C47.7139 109.004 71.4801 109.004 95.2765 109.004C95.3974 109.004 95.5183 109.004 95.6393 109.004C98.4816 109.034 100.175 110.334 100.175 112.511C100.175 114.688 98.4816 116.019 95.6393 116.019C83.5445 116.019 71.48 116.019 59.4155 116.019Z" fill="#164284"/>
<path fill-rule="evenodd" clip-rule="evenodd" d="M52.9146 128.658C62.4695 128.658 71.9941 128.658 81.5489 128.658C82.3653 128.658 83.212 128.688 83.9679 128.93C85.4797 129.383 86.2659 130.563 86.2961 132.105C86.3263 133.707 85.5402 134.947 83.9376 135.431C83.1817 135.673 82.3351 135.703 81.5187 135.703C62.3183 135.703 43.1179 135.703 23.8872 135.703C23.7058 135.703 23.5244 135.703 23.3732 135.703C20.6821 135.673 19.0191 134.312 19.0191 132.165C19.0191 130.018 20.7124 128.658 23.4034 128.658C33.2304 128.658 43.0574 128.658 52.9146 128.658Z" fill="#164284"/>
<path fill-rule="evenodd" clip-rule="evenodd" d="M47.986 96.334C39.9732 96.334 31.9302 96.334 23.9175 96.334C23.343 96.334 22.7382 96.3642 22.1637 96.2735C20.3193 96.0014 19.0191 94.55 19.0191 92.8265C19.0191 91.103 20.3193 89.6517 22.1637 89.3795C22.7382 89.2888 23.343 89.319 23.9175 89.319C40.0942 89.319 56.2407 89.319 72.4174 89.319C72.5383 89.319 72.6593 89.319 72.7802 89.319C75.6225 89.3493 77.3158 90.6495 77.3158 92.8265C77.3158 95.0036 75.6225 96.334 72.7802 96.334C64.4953 96.334 56.2407 96.334 47.986 96.334Z" fill="#164284"/>
<path fill-rule="evenodd" clip-rule="evenodd" d="M100.175 132.195C100.175 134.009 98.4816 135.672 96.6674 135.672C94.8532 135.672 93.1902 133.979 93.1902 132.165C93.1902 130.351 94.8834 128.688 96.6976 128.688C98.5118 128.718 100.175 130.381 100.175 132.195Z" fill="#164284"/>
<path fill-rule="evenodd" clip-rule="evenodd" d="M121.975 57.5407C121.975 56.18 121.945 54.8496 121.975 53.4889C122.066 50.5862 123.699 48.4091 126.481 47.4113C126.964 47.2299 127.478 47.0787 127.992 46.9275C131.681 45.6273 133.858 41.9989 133.193 38.1891C132.558 34.4397 129.172 31.6277 125.362 31.6882C121.401 31.7486 118.256 34.5909 117.712 38.5519C117.651 39.0659 117.561 39.6102 117.44 40.1242C117.017 42.0896 115.565 43.1479 113.63 42.9363C111.876 42.7548 110.576 41.3337 110.606 39.459C110.667 35.0142 112.33 31.2044 115.716 28.3319C120.554 24.2801 126.088 23.4335 131.772 26.1548C137.578 28.9668 140.39 33.8652 140.238 40.3359C140.117 45.9902 136.096 51.5235 130.623 53.368C129.353 53.7913 128.869 54.3356 128.96 55.6962C129.081 57.5709 129.021 59.4456 128.99 61.3203C128.96 64.0113 127.539 65.6744 125.392 65.6441C123.306 65.6139 121.975 63.9811 121.945 61.3807C121.945 60.1108 121.945 58.8106 121.975 57.5407C121.945 57.5407 121.945 57.5407 121.975 57.5407Z" fill="#164284"/>
<path fill-rule="evenodd" clip-rule="evenodd" d="M128.93 75.9853C128.96 77.8297 127.358 79.4625 125.483 79.4928C123.548 79.523 122.006 78.0112 121.976 76.1062C121.945 74.2013 123.488 72.5988 125.392 72.5685C127.237 72.5383 128.9 74.1409 128.93 75.9853Z" fill="#164284"/>
</g>
<defs>
<clipPath id="clip0">
<rect width="180" height="180" fill="white"/>
</clipPath>
</defs>
</svg>
