<?xml version="1.0" encoding="utf-8"?>
<!-- Generator: Adobe Illustrator 19.2.0, SVG Export Plug-In . SVG Version: 6.00 Build 0)  -->
<svg version="1.1" id="Capa_1" xmlns="http://www.w3.org/2000/svg" xmlns:xlink="http://www.w3.org/1999/xlink" x="0px" y="0px"
	 viewBox="0 0 595.3 841.9" style="enable-background:new 0 0 595.3 841.9;" xml:space="preserve">
<style type="text/css">
	.st0{fill:#164284;}
</style>
<g>
	<path class="st0" d="M97.7,719.7c-3.3-1.5-6.8-2.7-9.8-4.6c-10-6.1-15.2-15.1-15.7-26.8c-0.1-2.1,0-4.3,0-6.4
		c0-172.2,0.2-344.5-0.2-516.7c0-20.1,6.2-34.1,25.8-40.7c134.1,0,268.2,0,402.3,0c1.5,0.7,3.1,1.4,4.6,2
		c12.5,4.8,20.8,16,20.9,29.4c0.1,43.8,0.1,87.6,0,131.3c0,6.2-3.6,10.2-8.8,10.1c-5.1-0.1-8.6-4-8.6-10.3c0-42.2,0-84.5,0-126.7
		c0-13.4-5.1-18.4-18.7-18.4c-127.1,0-254.2,0-381.3,0c-13.5,0-18.6,5-18.6,18.5c0,174.5,0,349.1,0,523.6c0,13.1,5.2,18.3,18.2,18.3
		c17,0,34.1,0.1,51.1,0c5,0,9.5,0.6,11.4,5.9c2,5.4-1.3,8.7-5.2,11.6C142.6,719.7,120.1,719.7,97.7,719.7z"/>
	<path class="st0" d="M200,719.7c-4-2.9-7.2-6.2-5.2-11.6c1.9-5.3,6.4-5.9,11.4-5.9c94.3,0.1,188.7,0,283,0c13.9,0,18.9-5,18.9-18.8
		c0-116.2,0-232.4,0-348.7c0-2.1-0.2-4.3,0.1-6.4c0.8-4.8,3.6-7.7,8.7-7.7c5,0,7.8,3,8.5,7.8c0.3,1.9,0.1,3.9,0.1,5.8
		c0,114.9-0.2,229.7,0.2,344.6c0.1,20-6.2,34.1-25.8,40.7C400,719.7,300,719.7,200,719.7z"/>
	<path class="st0" d="M395.4,299.3c0,2.3,0,4.4,0,6.5c0,27.9,0,55.8,0,83.7c0,14.7-7.5,22.3-22,22.3c-49.8,0-99.5,0-149.3,0
		c-14.2,0-21.8-7.6-21.8-21.9c0-28.1,0-56.2,0-84.2c0-2.1,0-4.1,0-6.8c-7.5,0-14.5-0.1-21.4,0c-6.8,0.1-12.1-2.2-14.9-8.8
		c-2.5-6-0.9-11.4,5.1-17c38-35.4,75.9-70.8,113.9-106.1c8.8-8.2,19.1-8.1,28,0.1c38,35.3,75.9,70.8,114,106.1c5,4.7,7.4,9.9,5,16.6
		c-2.1,6.2-7.2,9.1-15.3,9.1c-6.4,0.1-12.8,0-19.2,0.1C397.1,298.8,396.7,299,395.4,299.3z M410.1,281.3
		C372.2,246,335.7,212,298.8,177.6c-37,34.5-73.5,68.5-111.2,103.7c7.7,0,13.5,0,19.2,0c10.2,0,12.8,2.5,12.8,12.6
		c0,31,0.1,62-0.1,93c0,5.7,1.2,7.6,7.3,7.5c48-0.3,96.1-0.2,144.2,0c5.5,0,7.2-1.4,7.1-7.1c-0.3-31.6-0.1-63.2-0.1-94.7
		c0-8.3,3-11.2,11.1-11.2C395.5,281.3,401.8,281.3,410.1,281.3z"/>
	<path class="st0" d="M307.5,561.1c0,35.7,0,71.3,0,107c0,1.4,0,2.7,0,4.1c-0.1,7.3-3.4,11.4-8.8,11.4c-5.4,0-8.6-4.2-8.6-11.5
		c0-74,0-148,0-222c0-8.5,5.2-13.2,11.6-10.7c4.8,1.8,5.9,5.7,5.9,10.3c0,17.2,0,34.5,0,51.7C307.5,521.1,307.5,541.1,307.5,561.1z"
		/>
	<path class="st0" d="M408.1,590.4c16.8,0,33.7-0.1,50.5,0c7.1,0,11.2,4.4,9.9,10.3c-1.2,5.6-5.4,7.1-10.5,7.1
		c-16.3,0-32.5,0-48.8,0c-17,0-34.1,0.2-51.1-0.2c-3.4-0.1-7.9-1.8-9.9-4.4c-4.4-5.4,0.4-12.7,8.1-12.8
		C373.6,590.3,390.9,590.4,408.1,590.4z"/>
	<path class="st0" d="M190,590.4c17,0,34.1-0.2,51.1,0.2c2.9,0.1,6.8,2.2,8.4,4.6c1.3,1.9,0.9,6.3-0.5,8.4c-1.4,2.1-5,3.9-7.7,4
		c-34.3,0.3-68.5,0.2-102.8,0.1c-6,0-9.5-3.5-9.6-8.6c-0.1-5.4,3.5-8.7,10-8.7C156,590.4,173,590.4,190,590.4z"/>
	<path class="st0" d="M190,633.6c16.6,0,33.3,0,49.9,0c6.8,0,10.8,3.2,10.9,8.5c0.1,5.3-4,8.9-10.7,8.9c-33.5,0-67,0-100.5,0
		c-6.9,0-10.7-3.2-10.8-8.6c-0.1-5.7,3.7-8.8,11.1-8.8C156.7,633.6,173.3,633.6,190,633.6z"/>
	<path class="st0" d="M407.5,651.1c-16.8,0-33.7,0.1-50.5,0c-7.7-0.1-12.6-6.2-9.2-12c1.4-2.5,5.3-5.1,8-5.2
		c34.6-0.3,69.3-0.3,103.9-0.2c5.5,0,8.9,3.6,8.9,8.6c0,5.1-3.6,8.7-9.5,8.7C441.9,651.1,424.7,651.1,407.5,651.1z"/>
	<path class="st0" d="M189.9,547.2c16.8,0,33.7,0,50.5,0c4.4,0,8,1.1,9.8,5.6c1.9,4.8-0.8,10-5.9,11.3c-2.2,0.5-4.6,0.5-6.9,0.5
		c-31.7,0-63.5,0-95.2,0c-1.2,0-2.3,0-3.5,0c-6.5-0.4-9.9-3.7-9.7-9.1c0.2-5.2,3.5-8.2,9.9-8.2C155.8,547.1,172.8,547.2,189.9,547.2
		z"/>
	<path class="st0" d="M408,547.2c16.1,0,32.1,0,48.2,0c1.9,0,3.9,0,5.8,0.3c4.1,0.8,6.4,3.5,6.6,7.7c0.3,4.4-1.8,7.6-6,8.7
		c-2.4,0.6-5,0.6-7.5,0.6c-31.5,0-63.1,0-94.6,0c-1.5,0-3.1,0-4.6-0.1c-5.5-0.5-9.1-4-9.1-8.7c0-4.9,3.8-8.6,9.6-8.6
		C373.6,547.1,390.8,547.2,408,547.2z"/>
	<path class="st0" d="M179.1,491.6c-5.1-4.6-9-7.8-12.5-11.3c-4.2-4.2-4.2-9.3-0.6-12.9c3.5-3.5,8.8-3.4,12.9,0.7
		c3.6,3.5,6.8,7.4,11,11.9c4.2-4.5,7.4-8.4,10.9-11.8c4.2-4.2,9.3-4.3,12.9-0.8c3.7,3.6,3.6,8.6-0.5,12.9
		c-3.5,3.6-7.3,6.9-11.8,11.2c4.2,3.9,8,7.1,11.5,10.6c4.4,4.5,4.5,9.6,0.7,13.3c-3.6,3.5-8.5,3.1-12.9-0.9
		c-1.8-1.7-3.6-3.5-5.4-5.3c-1.6-1.7-3.1-3.4-6.2-6.9c-3,3.8-5.4,7.4-8.3,10.4c-5.6,5.9-11,6.6-15,2.5c-4-4.1-3.2-9,2.5-14.5
		C171.4,497.7,174.8,495.1,179.1,491.6z"/>
	<path class="st0" d="M399.4,495.1c8.3-8.3,16-16,23.8-23.8c1.5-1.5,2.9-3.2,4.6-4.4c3.9-2.9,8.1-2.9,11.6,0.6
		c3.5,3.5,3.9,8,0.5,11.5c-12,12.4-24.1,24.6-36.5,36.6c-4.1,4-9.8,3-13-1.9c-5.4-8.2-10.6-16.7-15.6-25.2
		c-2.6-4.4-1.2-9.2,2.7-11.7c4.1-2.6,9.1-1.6,12.1,2.8C392.9,484.3,395.8,489.3,399.4,495.1z"/>
	<path class="st0" d="M330.9,277.7c5.6,0,10.2-0.2,14.8,0c8.1,0.4,13.7,5.4,13.8,13.5c0.3,21.3,0.3,42.6,0,63.9
		c-0.1,9.1-6.1,13.9-16.5,13.9c-21.5,0.1-43,0-64.5,0c-8.3,0-16.7,0.1-25-0.1c-10.5-0.2-15.6-5.4-15.7-16c-0.1-19.7-0.1-39.5,0-59.2
		c0.1-10.9,5.3-16,16-16.2c4-0.1,8,0,12.7,0c0-4.1-0.1-7.6,0-11c0.3-9.7,5.3-14.6,14.9-14.8c11.4-0.1,22.8-0.1,34.3,0
		c9.9,0.1,14.8,5.1,15.1,15.1C331,270.3,330.9,273.5,330.9,277.7z M289.7,327.9c-11.7,0-22.7,0-34,0c0,8,0,15.6,0,23.4
		c28.9,0,57.5,0,86.1,0c0-8,0-15.7,0-23.3c-11.6,0-22.7,0-34.1,0c-0.4,5.8-2.6,10-8.5,10.3C292.6,338.5,290.4,333.8,289.7,327.9z
		 M341.9,310.1c0-5.4,0-9.9,0-14.6c-29,0-57.5,0-86.2,0c0,4.9,0,9.5,0,14.6c10.8,0,21.2,0.1,31.6-0.1c1,0,2.6-1.6,2.9-2.7
		c1.2-4.5,3.8-7.2,8.5-7.2c4.7-0.1,7.4,2.5,8.7,7c0.4,1.2,2.1,2.9,3.2,3C320.8,310.2,331.1,310.1,341.9,310.1z M313.1,269.8
		c-9.8,0-19.1,0-28.5,0c0,2.8,0,5.2,0,7.6c9.7,0,18.9,0,28.5,0C313.1,274.8,313.1,272.5,313.1,269.8z"/>
</g>
</svg>
