<?xml version="1.0" encoding="utf-8"?>
<!-- Generator: Adobe Illustrator 16.0.0, SVG Export Plug-In . SVG Version: 6.00 Build 0)  -->
<!DOCTYPE svg PUBLIC "-//W3C//DTD SVG 1.1//EN" "http://www.w3.org/Graphics/SVG/1.1/DTD/svg11.dtd">
<svg version="1.1" id="Capa_1" xmlns="http://www.w3.org/2000/svg" xmlns:xlink="http://www.w3.org/1999/xlink" x="0px" y="0px"
	 width="595.279px" height="841.891px" viewBox="0 0 595.279 841.891" enable-background="new 0 0 595.279 841.891"
	 xml:space="preserve">
<g>
	<path fill-rule="evenodd" clip-rule="evenodd" d="M97.662,719.749c-3.289-1.512-6.758-2.725-9.833-4.589
		c-10.013-6.076-15.234-15.111-15.716-26.833c-0.087-2.128-0.029-4.262-0.029-6.394c0-172.249,0.175-344.497-0.237-516.745
		c-0.048-20.061,6.188-34.12,25.815-40.72c134.093,0,268.187,0,402.279,0c1.547,0.683,3.068,1.434,4.645,2.038
		c12.527,4.795,20.817,16.019,20.861,29.38c0.146,43.782,0.087,87.565,0.044,131.346c-0.006,6.231-3.617,10.206-8.783,10.147
		c-5.143-0.058-8.599-4.035-8.604-10.321c-0.042-42.232-0.019-84.465-0.025-126.698c-0.003-13.396-5.116-18.45-18.661-18.45
		c-127.085-0.003-254.169-0.003-381.253,0c-13.54,0-18.637,5.048-18.638,18.465c-0.003,174.547-0.003,349.094,0,523.642
		c0,13.082,5.19,18.278,18.241,18.288c17.048,0.012,34.097,0.072,51.144-0.04c4.971-0.033,9.455,0.572,11.405,5.903
		c1.983,5.421-1.286,8.704-5.219,11.58C142.618,719.749,120.141,719.749,97.662,719.749z"/>
	<path fill-rule="evenodd" clip-rule="evenodd" d="M199.976,719.749c-3.952-2.866-7.203-6.162-5.232-11.577
		c1.94-5.327,6.427-5.906,11.399-5.903c94.334,0.055,188.668,0.041,283.001,0.039c13.891-0.001,18.934-4.997,18.934-18.77
		c0.003-116.223,0.002-232.445,0.005-348.667c0-2.13-0.214-4.303,0.129-6.381c0.789-4.797,3.623-7.708,8.657-7.662
		c5.026,0.047,7.801,2.988,8.534,7.805c0.288,1.896,0.113,3.866,0.113,5.803c0.003,114.866-0.249,229.734,0.242,344.599
		c0.085,20.044-6.185,34.12-25.817,40.715C399.953,719.749,299.965,719.749,199.976,719.749z"/>
	<path fill-rule="evenodd" clip-rule="evenodd" d="M395.414,299.284c0,2.318,0,4.406,0,6.495c0,27.889,0.017,55.776-0.009,83.665
		c-0.014,14.724-7.488,22.28-22.039,22.285c-49.772,0.016-99.545,0.018-149.318-0.001c-14.25-0.004-21.831-7.592-21.847-21.885
		c-0.033-28.082-0.01-56.164-0.011-84.246c0-2.073,0-4.146,0-6.819c-7.543,0-14.463-0.066-21.382,0.018
		c-6.791,0.084-12.15-2.175-14.94-8.771c-2.538-6-0.912-11.438,5.08-17.026c37.959-35.395,75.919-70.788,113.909-106.15
		c8.769-8.163,19.143-8.15,28.018,0.104c38.002,35.348,75.934,70.773,113.956,106.099c5.018,4.661,7.368,9.925,5.05,16.596
		c-2.141,6.159-7.158,9.059-15.269,9.123c-6.39,0.052-12.781,0.039-19.172,0.072C397.064,298.843,396.688,298.999,395.414,299.284z
		 M410.052,281.339c-37.857-35.291-74.363-69.32-111.235-103.691c-36.984,34.486-73.514,68.547-111.202,103.69
		c7.672,0,13.458-0.005,19.244,0.001c10.236,0.012,12.763,2.479,12.767,12.563c0.011,31,0.144,62.002-0.122,93
		c-0.049,5.696,1.154,7.583,7.295,7.547c48.049-0.279,96.101-0.242,144.152-0.035c5.535,0.024,7.196-1.442,7.149-7.076
		c-0.261-31.581-0.146-63.163-0.11-94.745c0.01-8.281,2.96-11.198,11.15-11.247C395.482,281.309,401.825,281.339,410.052,281.339z"
		/>
	<path fill-rule="evenodd" clip-rule="evenodd" d="M307.53,561.051c0,35.65,0,71.301,0,106.951c0,1.357,0.019,2.714-0.008,4.069
		c-0.14,7.255-3.352,11.398-8.785,11.355c-5.414-0.042-8.639-4.174-8.642-11.479c-0.027-74.016-0.032-148.029,0.006-222.043
		c0.005-8.487,5.185-13.154,11.575-10.741c4.792,1.811,5.863,5.702,5.856,10.285c-0.025,17.244-0.005,34.487-0.004,51.732
		C307.531,521.137,307.53,541.094,307.53,561.051z"/>
	<path fill-rule="evenodd" clip-rule="evenodd" d="M408.086,590.419c16.837-0.007,33.675-0.072,50.511,0.025
		c7.079,0.04,11.219,4.416,9.913,10.346c-1.223,5.559-5.396,7.062-10.507,7.057c-16.257-0.016-32.514-0.004-48.771-0.004
		c-17.031,0-34.067,0.232-51.088-0.2c-3.403-0.086-7.855-1.824-9.881-4.354c-4.359-5.446,0.411-12.737,8.149-12.813
		C373.636,590.312,390.861,590.425,408.086,590.419z"/>
	<path fill-rule="evenodd" clip-rule="evenodd" d="M190.022,590.418c17.031,0.004,34.067-0.215,51.087,0.212
		c2.938,0.074,6.754,2.239,8.405,4.646c1.311,1.909,0.897,6.318-0.523,8.421c-1.445,2.14-5.049,3.938-7.723,3.959
		c-34.254,0.261-68.51,0.228-102.765,0.126c-6.029-0.017-9.527-3.496-9.578-8.646c-0.054-5.413,3.485-8.655,10.004-8.69
		C155.959,590.354,172.99,590.413,190.022,590.418z"/>
	<path fill-rule="evenodd" clip-rule="evenodd" d="M189.981,633.623c16.646,0,33.294-0.025,49.941,0.014
		c6.826,0.017,10.841,3.217,10.923,8.522c0.083,5.308-4.042,8.87-10.68,8.879c-33.488,0.048-66.976,0.043-100.463,0.006
		c-6.881-0.008-10.709-3.179-10.787-8.636c-0.082-5.693,3.746-8.762,11.124-8.775C156.686,633.603,173.333,633.623,189.981,633.623z
		"/>
	<path fill-rule="evenodd" clip-rule="evenodd" d="M407.488,651.057c-16.84,0.002-33.682,0.085-50.522-0.035
		c-7.71-0.056-12.558-6.162-9.195-11.984c1.449-2.51,5.272-5.139,8.043-5.167c34.646-0.348,69.298-0.271,103.948-0.181
		c5.475,0.014,8.927,3.643,8.923,8.602c-0.005,5.12-3.609,8.677-9.511,8.72C441.946,651.136,424.716,651.056,407.488,651.057z"/>
	<path fill-rule="evenodd" clip-rule="evenodd" d="M189.876,547.177c16.834-0.002,33.669,0.022,50.503-0.02
		c4.408-0.011,8.031,1.142,9.783,5.636c1.872,4.8-0.77,10.046-5.916,11.255c-2.225,0.522-4.604,0.536-6.914,0.538
		c-31.733,0.032-63.467,0.021-95.201,0.021c-1.161,0-2.325,0.039-3.482-0.036c-6.459-0.414-9.916-3.67-9.721-9.114
		c0.187-5.195,3.548-8.203,9.864-8.241C155.82,547.111,172.848,547.18,189.876,547.177z"/>
	<path fill-rule="evenodd" clip-rule="evenodd" d="M408.044,547.177c16.06-0.008,32.119-0.018,48.18,0.006
		c1.929,0.002,3.904-0.042,5.776,0.342c4.088,0.837,6.371,3.525,6.63,7.681c0.275,4.405-1.752,7.574-6.02,8.736
		c-2.376,0.646-4.976,0.638-7.476,0.642c-31.539,0.038-63.078,0.025-94.619,0.021c-1.546,0-3.103,0.046-4.64-0.097
		c-5.499-0.511-9.092-3.958-9.117-8.653c-0.027-4.931,3.775-8.586,9.622-8.626C373.601,547.107,390.823,547.185,408.044,547.177z"/>
	<path fill-rule="evenodd" clip-rule="evenodd" d="M179.064,491.594c-5.107-4.594-9.004-7.786-12.526-11.349
		c-4.159-4.207-4.245-9.298-0.636-12.883c3.512-3.49,8.814-3.374,12.933,0.663c3.573,3.503,6.807,7.353,11.011,11.947
		c4.155-4.532,7.382-8.352,10.932-11.845c4.22-4.152,9.271-4.314,12.864-0.782c3.654,3.595,3.614,8.616-0.473,12.881
		c-3.475,3.627-7.282,6.933-11.807,11.196c4.196,3.856,8.01,7.079,11.488,10.63c4.401,4.491,4.532,9.63,0.699,13.294
		c-3.615,3.456-8.539,3.126-12.908-0.938c-1.842-1.714-3.61-3.51-5.351-5.327c-1.602-1.674-3.122-3.427-6.239-6.868
		c-3.035,3.841-5.413,7.36-8.301,10.397c-5.578,5.868-10.982,6.62-14.96,2.499c-3.954-4.094-3.228-8.998,2.517-14.516
		C171.356,497.666,174.791,495.142,179.064,491.594z"/>
	<path fill-rule="evenodd" clip-rule="evenodd" d="M399.438,495.087c8.267-8.252,16.05-16.025,23.841-23.792
		c1.507-1.502,2.902-3.166,4.597-4.421c3.933-2.911,8.055-2.909,11.553,0.578c3.513,3.5,3.862,8.03,0.52,11.498
		c-11.952,12.396-24.136,24.577-36.51,36.553c-4.092,3.959-9.805,2.982-13.019-1.919c-5.407-8.244-10.58-16.651-15.568-25.154
		c-2.569-4.379-1.217-9.194,2.662-11.715c4.074-2.647,9.09-1.627,12.131,2.839C392.902,484.337,395.836,489.339,399.438,495.087z"/>
	<path fill-rule="evenodd" clip-rule="evenodd" d="M330.942,277.731c5.593,0,10.216-0.186,14.818,0.04
		c8.121,0.398,13.657,5.434,13.769,13.54c0.294,21.292,0.325,42.594,0.012,63.885c-0.134,9.107-6.121,13.852-16.479,13.902
		c-21.491,0.104-42.983,0.036-64.475,0.035c-8.326-0.001-16.655,0.144-24.976-0.055c-10.475-0.25-15.628-5.428-15.703-15.965
		c-0.138-19.748-0.127-39.499-0.009-59.248c0.065-10.869,5.268-15.987,16.028-16.198c4.02-0.078,8.042-0.012,12.738-0.012
		c0-4.125-0.103-7.563,0.02-10.994c0.346-9.661,5.26-14.644,14.859-14.764c11.422-0.146,22.848-0.133,34.271-0.007
		c9.947,0.109,14.804,5.055,15.113,15.114C331.027,270.27,330.942,273.541,330.942,277.731z M289.661,327.886
		c-11.698,0-22.67,0-33.962,0c0,7.95,0,15.557,0,23.377c28.942,0,57.484,0,86.13,0c0-8.046,0-15.653,0-23.276
		c-11.597,0-22.714,0-34.121,0c-0.357,5.757-2.612,10.02-8.487,10.269C292.611,338.535,290.411,333.764,289.661,327.886z
		 M341.893,310.091c0-5.396,0-9.925,0-14.613c-28.953,0-57.492,0-86.187,0c0,4.926,0,9.457,0,14.595
		c10.808,0,21.222,0.077,31.631-0.124c1.004-0.02,2.562-1.605,2.858-2.729c1.186-4.505,3.756-7.199,8.491-7.25
		c4.719-0.053,7.37,2.526,8.679,7.023c0.362,1.242,2.104,2.936,3.245,2.962C320.834,310.187,331.067,310.091,341.893,310.091z
		 M313.12,269.75c-9.796,0-19.135,0-28.482,0c0,2.839,0,5.192,0,7.561c9.728,0,18.918,0,28.482,0
		C313.12,274.756,313.12,272.538,313.12,269.75z"/>
</g>
</svg>
