<?xml version="1.0" encoding="utf-8"?>
<!-- Generator: Adobe Illustrator 16.0.0, SVG Export Plug-In . SVG Version: 6.00 Build 0)  -->
<!DOCTYPE svg PUBLIC "-//W3C//DTD SVG 1.1//EN" "http://www.w3.org/Graphics/SVG/1.1/DTD/svg11.dtd">
<svg version="1.1" id="Capa_1" xmlns="http://www.w3.org/2000/svg" xmlns:xlink="http://www.w3.org/1999/xlink" x="0px" y="0px"
	 width="595.279px" height="841.891px" viewBox="0 0 595.279 841.891" enable-background="new 0 0 595.279 841.891"
	 xml:space="preserve">
<g>
	<path fill-rule="evenodd" clip-rule="evenodd" d="M1.162,551.163c2.409-2.994,4.668-6.123,7.251-8.959
		c14.739-16.188,29.912-31.996,44.282-48.504c53.898-61.916,138.155-70.473,205.582-32.445c0.843,0.476,1.766,0.863,2.497,1.475
		c12.627,10.571,27.238,12.631,43.282,11.935c21.854-0.948,43.778-0.243,65.673-0.235c26.999,0.011,44.346,13.13,51.9,39.229
		c0.159,0.551,0.41,1.074,0.814,2.112c1.439-1.12,2.766-2.064,3.995-3.12c31.744-27.266,63.301-54.751,95.27-81.749
		c23.089-19.5,57.517-11.986,70.174,15.078c8.06,17.232,5.554,33.533-6.053,48.472c-1.655,2.132-3.633,4.024-5.549,5.942
		c-36.285,36.327-72.738,72.489-108.834,109.004c-31.632,31.999-69.67,47.934-114.649,47.505c-16.662-0.159-33.326,0-49.989-0.038
		c-8.37-0.02-13.698-4.241-13.854-10.826c-0.174-7.365,5.133-12.249,13.752-12.29c18.6-0.09,37.202,0.083,55.801-0.062
		c33.41-0.26,62.767-11.597,86.596-34.856c39.512-38.57,78.275-77.907,117.257-117.019c9.104-9.135,9.449-22.441,1.288-31.409
		c-8.531-9.371-21.78-10.051-32.262-1.105c-28.879,24.643-57.59,49.483-86.365,74.246c-14.388,12.382-28.807,24.729-43.146,37.166
		c-9.652,8.371-20.92,12.328-33.561,12.342c-52.313,0.058-104.628,0.028-156.942,0.008c-1.732,0-3.506-0.056-5.19-0.412
		c-6.346-1.347-9.784-5.848-9.347-12.019c0.401-5.655,4.538-9.813,10.563-10.469c1.725-0.188,3.484-0.072,5.228-0.072
		c52.121-0.002,104.24,0.021,156.36-0.019c14.199-0.01,24.966-9.771,26.692-23.971c1.479-12.147-7.339-24.629-19.844-27.811
		c-2.396-0.609-4.979-0.657-7.477-0.66c-30.032-0.044-60.067,0.19-90.094-0.233c-5.275-0.075-11.147-1.796-15.657-4.543
		c-19.714-12.007-39.527-23.463-62.589-28.008c-52.045-10.257-96.409,3.233-132.55,42.447
		c-16.018,17.379-31.896,34.888-47.928,52.254c-8.562,9.273-15.251,8.774-22.375-1.403C1.162,555.814,1.162,553.488,1.162,551.163z"
		/>
	<path fill-rule="evenodd" clip-rule="evenodd" d="M56.969,719.749c-10.492-5.991-11.521-13.243-2.978-21.775
		c12.46-12.446,24.949-24.865,37.489-37.231c17.905-17.654,39.512-26.591,64.614-26.931c13.738-0.185,27.482-0.134,41.222-0.042
		c8.622,0.059,13.864,4.783,13.903,12.178c0.034,6.36-5.616,10.888-13.801,10.916c-12.967,0.045-25.936,0.157-38.901-0.02
		c-20.684-0.284-38.04,7.147-52.528,21.793c-11.57,11.693-23.269,23.262-35.031,34.762c-2.452,2.396-5.437,4.247-8.175,6.351
		C60.845,719.749,58.907,719.749,56.969,719.749z"/>
	<path fill-rule="evenodd" clip-rule="evenodd" d="M325.543,124.468c6.306,3.022,8.845,7.942,8.429,14.968
		c-0.423,7.125,0.021,14.297-0.152,21.442c-0.167,6.847-4.714,11.588-10.996,11.864c-6.458,0.285-11.779-4.42-12.063-11.455
		c-0.34-8.487-0.128-16.999-0.044-25.5c0.054-5.484,3.944-8.437,7.851-11.319C320.893,124.468,323.218,124.468,325.543,124.468z"/>
	<path fill-rule="evenodd" clip-rule="evenodd" d="M322.374,361.072c-45.042,0.048-81.733-36.532-81.834-81.583
		c-0.102-45.494,36.384-82.134,81.778-82.125c45.313,0.01,82.214,36.935,82.019,82.071
		C404.142,324.399,367.368,361.026,322.374,361.072z M381.282,279.5c0.133-32.489-26.419-59.241-58.882-59.325
		c-32.28-0.083-58.534,26.105-58.819,58.672c-0.286,32.545,26.22,59.328,58.736,59.347
		C354.45,338.214,381.152,311.636,381.282,279.5z"/>
	<path fill-rule="evenodd" clip-rule="evenodd" d="M452.87,290.735c-4.249-0.001-8.508,0.173-12.746-0.041
		c-6.739-0.34-11.25-5.095-11.255-11.532c-0.003-6.375,4.533-11.325,11.265-11.544c8.49-0.276,17.003-0.278,25.492,0
		c6.744,0.222,11.255,5.157,11.248,11.554c-0.005,6.448-4.51,11.188-11.257,11.523C461.377,290.906,457.119,290.735,452.87,290.735z
		"/>
	<path fill-rule="evenodd" clip-rule="evenodd" d="M191.361,290.748c-4.058-0.004-8.123,0.149-12.172-0.04
		c-6.56-0.305-11.479-5.276-11.563-11.415c-0.083-6.109,4.769-11.439,11.31-11.665c8.493-0.293,17.008-0.272,25.503-0.021
		c6.629,0.196,11.488,5.283,11.563,11.433c0.078,6.36-4.979,11.425-11.888,11.682C199.868,290.88,195.612,290.752,191.361,290.748z"
		/>
	<path fill-rule="evenodd" clip-rule="evenodd" d="M436.025,381.739c-2.324,2.812-4.396,6.521-7.516,8.787
		c-3.718,2.7-8.449,2.113-11.83-1.029c-6.926-6.435-13.703-13.075-20.05-20.076c-3.939-4.345-3.193-10.581,0.77-14.772
		c3.854-4.076,10.47-5.289,14.718-1.511c7.343,6.526,14.145,13.683,20.895,20.837C434.445,375.493,434.685,378.138,436.025,381.739z
		"/>
	<path fill-rule="evenodd" clip-rule="evenodd" d="M435.85,178.445c-1.543,2.764-2.642,5.932-4.716,8.211
		c-5.197,5.709-10.765,11.089-16.318,16.463c-5.367,5.192-12.401,5.497-17.083,0.956c-4.987-4.835-4.759-11.731,0.796-17.435
		c5.66-5.813,11.387-11.57,17.281-17.143c3.524-3.333,7.789-4.072,12.35-2.052C432.497,169.368,434.972,173.195,435.85,178.445z"/>
	<path fill-rule="evenodd" clip-rule="evenodd" d="M333.802,409.766c-0.007,4.44,0.206,8.895-0.059,13.319
		c-0.354,5.905-4.651,10.155-10.295,10.657c-5.876,0.521-11.764-3.097-12.187-9.073c-0.704-9.966-0.72-20.057,0.019-30.018
		c0.447-6.047,6.186-9.442,12.26-8.891c5.659,0.514,9.889,4.751,10.221,10.685C334.008,400.872,333.809,405.324,333.802,409.766z"/>
	<path fill-rule="evenodd" clip-rule="evenodd" d="M250.451,364.407c-0.711,1.336-1.652,4.406-3.612,6.541
		c-5.482,5.97-11.276,11.668-17.157,17.252c-5.207,4.943-11.95,4.943-16.589,0.364c-4.746-4.685-4.861-11.298,0.121-16.556
		c5.71-6.027,11.654-11.837,17.62-17.615c3.686-3.569,8.11-4.366,12.82-2.261C248.148,354.142,250.302,357.805,250.451,364.407z"/>
	<path fill-rule="evenodd" clip-rule="evenodd" d="M239.829,208.796c-4.076-2.269-7.248-3.36-9.526-5.434
		c-5.709-5.193-11.099-10.749-16.457-16.313c-5.464-5.674-5.743-12.051-1.001-16.988c4.877-5.08,11.712-4.939,17.426,0.586
		c5.691,5.503,11.274,11.124,16.779,16.815c3.566,3.687,4.834,8.535,2.264,12.764C247.259,203.605,243.267,205.806,239.829,208.796z
		"/>
	<path fill-rule="evenodd" clip-rule="evenodd" d="M263.547,646.328c-0.142,5.633-5.738,10.71-11.689,10.603
		c-6.302-0.113-11.468-5.463-11.182-11.581c0.293-6.276,5.667-11.58,11.584-11.435C258.483,634.069,263.711,639.818,263.547,646.328
		z"/>
</g>
</svg>
