<?xml version="1.0" encoding="utf-8"?>
<!-- Generator: Adobe Illustrator 19.2.0, SVG Export Plug-In . SVG Version: 6.00 Build 0)  -->
<svg version="1.1" id="Capa_1" xmlns="http://www.w3.org/2000/svg" xmlns:xlink="http://www.w3.org/1999/xlink" x="0px" y="0px"
	 viewBox="0 0 595.3 841.9" style="enable-background:new 0 0 595.3 841.9;" xml:space="preserve">
<style type="text/css">
	.st0{fill:#164284;}
</style>
<g>
	<path class="st0" d="M1.2,551.2c2.4-3,4.7-6.1,7.3-9c14.7-16.2,29.9-32,44.3-48.5c53.9-61.9,138.2-70.5,205.6-32.4
		c0.8,0.5,1.8,0.9,2.5,1.5c12.6,10.6,27.2,12.6,43.3,11.9c21.9-0.9,43.8-0.2,65.7-0.2c27,0,44.3,13.1,51.9,39.2
		c0.2,0.6,0.4,1.1,0.8,2.1c1.4-1.1,2.8-2.1,4-3.1c31.7-27.3,63.3-54.8,95.3-81.7c23.1-19.5,57.5-12,70.2,15.1
		c8.1,17.2,5.6,33.5-6.1,48.5c-1.7,2.1-3.6,4-5.5,5.9c-36.3,36.3-72.7,72.5-108.8,109c-31.6,32-69.7,47.9-114.6,47.5
		c-16.7-0.2-33.3,0-50,0c-8.4,0-13.7-4.2-13.9-10.8c-0.2-7.4,5.1-12.2,13.8-12.3c18.6-0.1,37.2,0.1,55.8-0.1
		c33.4-0.3,62.8-11.6,86.6-34.9c39.5-38.6,78.3-77.9,117.3-117c9.1-9.1,9.4-22.4,1.3-31.4c-8.5-9.4-21.8-10.1-32.3-1.1
		c-28.9,24.6-57.6,49.5-86.4,74.2c-14.4,12.4-28.8,24.7-43.1,37.2c-9.7,8.4-20.9,12.3-33.6,12.3c-52.3,0.1-104.6,0-156.9,0
		c-1.7,0-3.5-0.1-5.2-0.4c-6.3-1.3-9.8-5.8-9.3-12c0.4-5.7,4.5-9.8,10.6-10.5c1.7-0.2,3.5-0.1,5.2-0.1c52.1,0,104.2,0,156.4,0
		c14.2,0,25-9.8,26.7-24c1.5-12.1-7.3-24.6-19.8-27.8c-2.4-0.6-5-0.7-7.5-0.7c-30,0-60.1,0.2-90.1-0.2c-5.3-0.1-11.1-1.8-15.7-4.5
		c-19.7-12-39.5-23.5-62.6-28c-52-10.3-96.4,3.2-132.6,42.4c-16,17.4-31.9,34.9-47.9,52.3c-8.6,9.3-15.3,8.8-22.4-1.4
		C1.2,555.8,1.2,553.5,1.2,551.2z"/>
	<path class="st0" d="M57,719.7c-10.5-6-11.5-13.2-3-21.8c12.5-12.4,24.9-24.9,37.5-37.2c17.9-17.7,39.5-26.6,64.6-26.9
		c13.7-0.2,27.5-0.1,41.2,0c8.6,0.1,13.9,4.8,13.9,12.2c0,6.4-5.6,10.9-13.8,10.9c-13,0-25.9,0.2-38.9,0c-20.7-0.3-38,7.1-52.5,21.8
		c-11.6,11.7-23.3,23.3-35,34.8c-2.5,2.4-5.4,4.2-8.2,6.4C60.8,719.7,58.9,719.7,57,719.7z"/>
	<path class="st0" d="M325.5,124.5c6.3,3,8.8,7.9,8.4,15c-0.4,7.1,0,14.3-0.2,21.4c-0.2,6.8-4.7,11.6-11,11.9
		c-6.5,0.3-11.8-4.4-12.1-11.5c-0.3-8.5-0.1-17,0-25.5c0.1-5.5,3.9-8.4,7.9-11.3C320.9,124.5,323.2,124.5,325.5,124.5z"/>
	<path class="st0" d="M322.4,361.1c-45,0-81.7-36.5-81.8-81.6c-0.1-45.5,36.4-82.1,81.8-82.1c45.3,0,82.2,36.9,82,82.1
		C404.1,324.4,367.4,361,322.4,361.1z M381.3,279.5c0.1-32.5-26.4-59.2-58.9-59.3c-32.3-0.1-58.5,26.1-58.8,58.7
		c-0.3,32.5,26.2,59.3,58.7,59.3C354.5,338.2,381.2,311.6,381.3,279.5z"/>
	<path class="st0" d="M452.9,290.7c-4.2,0-8.5,0.2-12.7,0c-6.7-0.3-11.2-5.1-11.3-11.5c0-6.4,4.5-11.3,11.3-11.5
		c8.5-0.3,17-0.3,25.5,0c6.7,0.2,11.3,5.2,11.2,11.6c0,6.4-4.5,11.2-11.3,11.5C461.4,290.9,457.1,290.7,452.9,290.7z"/>
	<path class="st0" d="M191.4,290.7c-4.1,0-8.1,0.1-12.2,0c-6.6-0.3-11.5-5.3-11.6-11.4c-0.1-6.1,4.8-11.4,11.3-11.7
		c8.5-0.3,17-0.3,25.5,0c6.6,0.2,11.5,5.3,11.6,11.4c0.1,6.4-5,11.4-11.9,11.7C199.9,290.9,195.6,290.8,191.4,290.7z"/>
	<path class="st0" d="M436,381.7c-2.3,2.8-4.4,6.5-7.5,8.8c-3.7,2.7-8.4,2.1-11.8-1c-6.9-6.4-13.7-13.1-20-20.1
		c-3.9-4.3-3.2-10.6,0.8-14.8c3.9-4.1,10.5-5.3,14.7-1.5c7.3,6.5,14.1,13.7,20.9,20.8C434.4,375.5,434.7,378.1,436,381.7z"/>
	<path class="st0" d="M435.9,178.4c-1.5,2.8-2.6,5.9-4.7,8.2c-5.2,5.7-10.8,11.1-16.3,16.5c-5.4,5.2-12.4,5.5-17.1,1
		c-5-4.8-4.8-11.7,0.8-17.4c5.7-5.8,11.4-11.6,17.3-17.1c3.5-3.3,7.8-4.1,12.4-2.1C432.5,169.4,435,173.2,435.9,178.4z"/>
	<path class="st0" d="M333.8,409.8c0,4.4,0.2,8.9-0.1,13.3c-0.4,5.9-4.7,10.2-10.3,10.7c-5.9,0.5-11.8-3.1-12.2-9.1
		c-0.7-10-0.7-20.1,0-30c0.4-6,6.2-9.4,12.3-8.9c5.7,0.5,9.9,4.8,10.2,10.7C334,400.9,333.8,405.3,333.8,409.8z"/>
	<path class="st0" d="M250.5,364.4c-0.7,1.3-1.7,4.4-3.6,6.5c-5.5,6-11.3,11.7-17.2,17.3c-5.2,4.9-11.9,4.9-16.6,0.4
		c-4.7-4.7-4.9-11.3,0.1-16.6c5.7-6,11.7-11.8,17.6-17.6c3.7-3.6,8.1-4.4,12.8-2.3C248.1,354.1,250.3,357.8,250.5,364.4z"/>
	<path class="st0" d="M239.8,208.8c-4.1-2.3-7.2-3.4-9.5-5.4c-5.7-5.2-11.1-10.7-16.5-16.3c-5.5-5.7-5.7-12.1-1-17
		c4.9-5.1,11.7-4.9,17.4,0.6c5.7,5.5,11.3,11.1,16.8,16.8c3.6,3.7,4.8,8.5,2.3,12.8C247.3,203.6,243.3,205.8,239.8,208.8z"/>
	<path class="st0" d="M263.5,646.3c-0.1,5.6-5.7,10.7-11.7,10.6c-6.3-0.1-11.5-5.5-11.2-11.6c0.3-6.3,5.7-11.6,11.6-11.4
		C258.5,634.1,263.7,639.8,263.5,646.3z"/>
</g>
</svg>
