<?xml version="1.0" encoding="utf-8"?>
<!-- Generator: Adobe Illustrator 19.2.0, SVG Export Plug-In . SVG Version: 6.00 Build 0)  -->
<svg version="1.1" id="Capa_1" xmlns="http://www.w3.org/2000/svg" xmlns:xlink="http://www.w3.org/1999/xlink" x="0px" y="0px"
	 viewBox="0 0 595.3 841.9" style="enable-background:new 0 0 595.3 841.9;" xml:space="preserve">
<style type="text/css">
	.st0{fill:#164284;}
</style>
<g>
	<path class="st0" d="M160.4,719.7c-12.3-2.8-21.2-10.5-29.5-19.5c-5.4-5.8-11.3-11.2-16.8-16.9c-5.3-5.4-5.6-12.3-1-17.1
		c4.8-5,11.9-4.9,17.5,0.6c7.9,7.7,15.6,15.6,23.5,23.4c8.4,8.3,16.8,8.2,25.4-0.1c5.7-5.6,11.3-11.2,16.9-16.8
		c9.1-9.2,8.9-16.5-0.2-25.7c-20.9-21-41.6-42.2-62.4-63.2c-18.3-18.4-36.7-36.7-55.1-55c-2.7-2.7-5.6-5.3-8.7-7.7
		c-4.6-3.6-12.9-3.3-17.8,1.2c-7.8,7.3-15.4,14.7-22.6,22.6c-5.9,6.5-5.1,15,1.6,21.9c8.1,8.3,16.5,16.4,24.6,24.7
		c3.8,3.8,4.9,8.3,2.6,13.3c-2.1,4.8-6.1,7.3-11.1,6.6c-2.8-0.4-6-1.8-8.1-3.8c-9-8.5-17.8-17.2-26.3-26.3
		c-14-14.9-14.1-37.7-0.2-52.7c7.4-8,15-15.7,23-23c11.2-10.2,24.4-12.6,39-8.4c1.9,0.5,4.9,0.7,6.1-0.4
		c11.6-11.1,22.9-22.6,34.3-33.9c0.8-0.8,1.5-1.7,2.2-2.5c-23.3-24.2-14.2-58.2,13.5-69.6c-14.9-25.6-2.6-54.7,25.2-62.6
		c-4.1-25.5,6-42.6,29.9-50.9c0.3-7.1-0.4-14.2,1.1-20.8c5-22.1,26.4-34.8,49-30c2.2,0.5,5.2-0.2,7.1-1.4
		c10.2-7.1,21.4-6.1,32.5-4.1c25.1,4.5,50.2,9.6,75.3,14.2c4.7,0.9,9.7,0.3,14.4,1.1c23.3,3.9,37.6,24,33.9,47.3
		c-0.2,1.1-0.3,2.3-0.4,4c10.9,3.1,19.9,9,25.9,18.9c6,10,7,20.7,4.6,31.8c24.7,8.3,35,26.6,31,51.6c15.4,4.4,26.2,14,30.3,29.7
		c4,15.6-0.9,29-12.3,40.8c9.6,9.6,19.1,19,28.5,28.4c1,1,2.1,1.8,2.9,2.9c4.2,5.7,8.6,7.1,16.1,4.5c13.1-4.5,25.8-1.2,36.2,8.2
		c8.2,7.4,16,15.2,23.5,23.4c14.1,15.4,14.1,38.3-0.6,53.1c-42,42.4-84.2,84.6-126.7,126.5c-15.4,15.2-38.9,14.7-54.5-0.4
		c-7-6.7-13.9-13.5-20.6-20.5C371,674.4,368,660,374.4,644c1.3-3.2,0.5-4.8-1.6-6.9c-14.1-13.9-28-27.9-42.1-41.8
		c-1.4-1.3-3.5-2.5-5.4-2.6c-12.4-0.5-24.8-0.7-37.1-1c-4.5-0.1-9.1-0.7-13.3,0.3c-4.3,1-9.1,2.6-12.2,5.6
		c-13.2,12.5-25.9,25.6-38.9,38.4c-2.4,2.4-2.9,4.1-1.3,7.4c7.3,15.2,4.5,31.8-7.2,44c-6.8,7.2-13.4,14.7-21.1,20.8
		c-6.2,4.9-13.9,7.8-21,11.6C169,719.7,164.7,719.7,160.4,719.7z M197.1,441.9c-5.6,33.9-28.6,47.6-59.9,35.8
		c-1.1-0.4-3.2-0.3-4,0.4c-12.1,11.9-24.1,24-35.5,35.4c35.9,36.1,71.5,71.8,107.4,107.8c1.2-1.1,2.6-2.4,3.9-3.7
		c12.6-12.6,25.3-25.1,37.8-37.8c6.3-6.4,13.8-10,22.5-11c5.7-0.7,11.6-0.8,17.4-0.6c9.7,0.3,19.3,1.1,29,1.4
		c13.1,0.3,25-2.7,33.6-13.7c1.1-1.4,2.4-2.5,3.7-3.7c5.8-5.6,12.6-6.1,17.5-1.4c5.2,5,4.7,11.7-0.9,18c-5,5.6-9.6,11.6-14.1,17.2
		c10.8,10.8,23.3,23.4,35.7,35.8c35.5-35.6,71.1-71.4,106.3-106.7c-11.8-11.9-24.2-24.4-37.7-38c-1.9,2.4-3.8,5.3-6.2,7.8
		c-3.4,3.4-7.5,4.6-12.2,2.9c-8.5-3.1-10.5-12.9-3.8-19.8c8.5-8.8,17.4-17.1,25.8-26c6.6-7,6.5-17.1,0.2-23.6
		c-6.5-6.8-16.6-7.2-24.1-0.8c-3.4,2.9-6.3,6.3-9.5,9.3c-6,5.8-13,6.1-17.9,0.9c-4.6-4.9-4.1-11.8,1.5-17.5
		c6.4-6.5,13-12.7,19.2-19.4c6.7-7.2,6.4-17.6-0.3-24.1c-6.7-6.6-16.7-6.7-24.1,0c-3.6,3.3-6.9,6.8-10.3,10.2c-6,5.8-13,6.4-18,1.5
		c-5-4.9-4.6-11.9,1.3-17.9c6.9-7.1,14.1-13.8,20.8-21.1c6.7-7.3,6.2-17.5-0.5-24c-6.7-6.5-16.9-6.4-24.1,0.3
		c-3.7,3.4-7.1,7.2-10.7,10.6c-5.7,5.4-12.8,5.7-17.6,0.8c-4.8-4.9-4.3-11.9,1.2-17.5c6.4-6.5,12.9-12.8,19.3-19.3
		c8.2-8.2,8.7-18.5,1.5-25.8c-7.2-7.2-17.5-6.7-25.8,1.5c-9.4,9.3-18.6,18.7-28,27.9c-2.8,2.8-3.5,4.8-1.7,8.8
		c11.2,24.8-5.1,53.8-31.7,56.5c-4.6,0.5-5.6,2.1-6.1,6.2c-2.2,18.5-16.8,32.8-35.1,34.7c-3.7,0.4-5.3,1.3-5.7,5.4
		c-1.5,16.4-13,29.8-28.8,34.2C204.7,440.7,200.8,441.2,197.1,441.9z M431,696.8c4.4-2.6,9-4.3,12.1-7.3
		c41.2-40.9,82.3-81.9,123.3-123c7.6-7.6,7.5-16.3,0-24.1c-5.7-5.8-11.5-11.5-17.3-17.2c-9.5-9.5-17.5-9.5-27,0
		c-19.7,19.7-39.4,39.4-59.2,59.1c-20.8,20.8-41.7,41.6-62.4,62.4c-8,8.1-8,16.8,0,24.9c6.1,6.2,12.1,12.6,18.6,18.3
		C422.3,692.6,426.6,694.2,431,696.8z M235.2,377.1c9.8-0.2,15.4-3.3,18.3-10c3.1-7.1,2-13.8-3.5-19.3c-13.9-14-27.8-28-41.9-41.8
		c-7.6-7.4-18-7.3-24.9-0.3c-6.7,6.9-6.6,17,0.7,24.5c13.7,14,27.5,27.8,41.6,41.4C228.6,374.5,233.2,376,235.2,377.1z M278.6,337
		c8.3-0.9,15.1-6.2,16.8-13.8c1.9-8.1-0.6-12.3-8-15.8c-23.5-11-41-27.9-50.9-52.2c-0.8-2-2.9-4.1-5-4.9c-7.1-2.7-15.2,0.2-19.5,6.3
		c-4.2,6.2-4.4,15,0.9,20.5c18.2,18.7,36.8,37.1,55.5,55.3C270.9,334.8,275.1,335.5,278.6,337z M214.9,400.4c-1.4-3.3-2-7.4-4.3-9.8
		c-11.5-12.1-23.1-24-35.3-35.3c-6.4-6-16.6-4.8-22.7,1.4c-6,6.1-7.1,15.9-1.3,22.2c11.5,12.3,23.5,24.2,35.8,35.7
		c5.1,4.7,11.9,4.5,18,1.4C211.1,412.7,214.1,407.5,214.9,400.4z M173.4,440.3c-0.5-1.6-0.8-5.1-2.6-7.2c-5.6-6.3-11.3-12.7-18-17.8
		c-6.6-5-16-2.8-21.4,3.5c-5.2,6.1-5.6,15.6-0.2,21.9c4.4,5.1,9.3,9.9,14.4,14.2c5.3,4.5,11.6,5,17.9,2.1
		C169.8,454.1,172.9,448.8,173.4,440.3z M292.5,284.2c10.3-10.3,20-20.1,30.1-30.2c-21.2-3.2-42.2-9.4-65.4-10.8
		C264,263.2,277.3,275,292.5,284.2z"/>
	<path class="st0" d="M301.1,124.5c6.2,3.1,8.5,8.1,8.4,15.1c-0.4,15.7-0.1,31.4-0.1,47c0,8.5-4.6,13.6-11.8,13.4
		c-6.9-0.1-11.5-5.3-11.5-13.3c-0.1-15.5,0.3-31-0.1-46.5c-0.2-7.2,2.1-12.3,8.2-15.8C296.5,124.5,298.8,124.5,301.1,124.5z"/>
	<path class="st0" d="M94.8,138.9c2.8-3.5,4.7-7.4,7.8-9.6c3.9-2.8,8.6-2.1,12.4,1c3.1,2.6,5.9,5.5,8.8,8.4
		c11.5,11.5,23,22.9,34.4,34.4c4.5,4.5,5.2,10.1,2.3,14.8c-3,4.9-7.5,6.6-12.9,5.2c-2.3-0.6-4.5-2.2-6.3-3.9
		c-13.6-13.4-27.2-26.9-40.6-40.6C98.4,146.3,97.2,142.9,94.8,138.9z"/>
	<path class="st0" d="M431.9,182.9c2.3-4.1,3.3-7.4,5.4-9.6c13.7-14,27.5-27.8,41.5-41.5c5.3-5.3,12.4-5.3,17.1-0.6
		c4.7,4.7,4.6,11.8-0.7,17.1c-13.8,13.9-27.6,27.7-41.5,41.5c-3.8,3.8-8.8,5.3-13.3,2.6C437,190.4,434.8,186.3,431.9,182.9z"/>
	<path class="st0" d="M82.4,647.9c-6.4-0.1-11.4-5-11.5-11.4c-0.1-6.4,5.4-12,11.8-11.9c6.2,0.1,11.4,5.3,11.5,11.6
		C94.3,642.8,89.1,648,82.4,647.9z"/>
	<path class="st0" d="M399.5,533.9c-6.4,0.1-11.5-4.8-11.6-11.2c-0.2-6.6,5.1-12,11.6-12.1c6.1,0,11.5,5.2,11.8,11.4
		C411.4,528.4,406.1,533.8,399.5,533.9z"/>
</g>
</svg>
