<?xml version="1.0" encoding="utf-8"?>
<!-- Generator: Adobe Illustrator 16.0.0, SVG Export Plug-In . SVG Version: 6.00 Build 0)  -->
<!DOCTYPE svg PUBLIC "-//W3C//DTD SVG 1.1//EN" "http://www.w3.org/Graphics/SVG/1.1/DTD/svg11.dtd">
<svg version="1.1" id="Capa_1" xmlns="http://www.w3.org/2000/svg" xmlns:xlink="http://www.w3.org/1999/xlink" x="0px" y="0px"
	 width="595.279px" height="841.891px" viewBox="0 0 595.279 841.891" enable-background="new 0 0 595.279 841.891"
	 xml:space="preserve">
<g>
	<path fill-rule="evenodd" clip-rule="evenodd" d="M160.446,719.749c-12.272-2.798-21.223-10.536-29.487-19.476
		c-5.389-5.83-11.255-11.214-16.788-16.912c-5.273-5.431-5.608-12.289-1.034-17.106c4.75-5.001,11.88-4.881,17.493,0.588
		c7.909,7.708,15.595,15.644,23.475,23.382c8.434,8.283,16.832,8.229,25.35-0.106c5.678-5.556,11.268-11.202,16.862-16.842
		c9.099-9.174,8.896-16.524-0.216-25.7c-20.876-21.02-41.568-42.224-62.439-63.249c-18.292-18.426-36.706-36.731-55.117-55.037
		c-2.734-2.72-5.635-5.302-8.667-7.682c-4.627-3.633-12.891-3.315-17.784,1.236c-7.796,7.253-15.426,14.726-22.628,22.563
		c-5.937,6.46-5.125,15.011,1.563,21.885c8.105,8.331,16.453,16.428,24.62,24.7c3.754,3.803,4.873,8.31,2.614,13.311
		c-2.148,4.753-6.093,7.277-11.143,6.644c-2.844-0.356-6.024-1.848-8.105-3.824c-8.987-8.537-17.848-17.233-26.34-26.262
		c-14.025-14.911-14.098-37.723-0.174-52.744c7.371-7.952,15.02-15.693,23.036-22.986c11.222-10.209,24.402-12.647,38.965-8.418
		c1.884,0.547,4.945,0.658,6.096-0.447c11.594-11.142,22.905-22.578,34.284-33.94c0.797-0.797,1.506-1.681,2.242-2.509
		C93.862,436.6,102.933,402.65,130.62,391.25c-14.9-25.615-2.583-54.737,25.224-62.628c-4.101-25.46,6.023-42.633,29.888-50.915
		c0.314-7.129-0.392-14.231,1.105-20.833c5.003-22.072,26.446-34.773,48.978-30.01c2.198,0.464,5.25-0.153,7.088-1.438
		c10.195-7.121,21.365-6.099,32.497-4.087c25.137,4.543,50.188,9.55,75.313,14.155c4.719,0.865,9.684,0.346,14.423,1.14
		c23.329,3.905,37.609,23.962,33.895,47.273c-0.182,1.142-0.251,2.303-0.431,3.991c10.904,3.063,19.923,8.968,25.932,18.875
		c6.042,9.962,6.972,20.698,4.594,31.819c24.697,8.274,34.985,26.58,30.957,51.572c15.421,4.387,26.158,13.979,30.251,29.743
		c4.045,15.583-0.858,28.985-12.263,40.756c9.648,9.639,19.063,19.043,28.478,28.448c0.959,0.959,2.06,1.814,2.854,2.894
		c4.209,5.71,8.578,7.078,16.053,4.506c13.128-4.518,25.793-1.244,36.163,8.187c8.161,7.422,16.015,15.236,23.473,23.365
		c14.118,15.387,14.132,38.282-0.589,53.143c-41.996,42.399-84.224,84.572-126.653,126.538c-15.35,15.18-38.882,14.655-54.48-0.383
		c-6.973-6.724-13.884-13.525-20.557-20.544c-11.818-12.431-14.809-26.848-8.45-42.835c1.26-3.167,0.538-4.816-1.612-6.941
		c-14.059-13.891-27.977-27.926-42.061-41.789c-1.359-1.337-3.52-2.526-5.356-2.603c-12.373-0.511-24.759-0.738-37.141-0.978
		c-4.45-0.086-9.065-0.667-13.311,0.284c-4.302,0.965-9.092,2.646-12.193,5.576c-13.234,12.503-25.867,25.64-38.856,38.406
		c-2.406,2.365-2.887,4.079-1.32,7.363c7.278,15.25,4.509,31.766-7.201,44.049c-6.816,7.151-13.397,14.698-21.104,20.772
		c-6.195,4.885-13.924,7.824-20.971,11.627C168.972,719.749,164.709,719.749,160.446,719.749z M197.14,441.877
		c-5.552,33.924-28.613,47.615-59.873,35.823c-1.141-0.431-3.2-0.337-3.953,0.404c-12.127,11.936-24.112,24.016-35.49,35.424
		c35.905,36.069,71.52,71.849,107.354,107.847c1.161-1.092,2.581-2.362,3.927-3.704c12.619-12.587,25.302-25.109,37.801-37.814
		c6.259-6.362,13.8-9.995,22.476-11.042c5.74-0.693,11.596-0.795,17.386-0.64c9.677,0.259,19.338,1.134,29.015,1.388
		c13.128,0.346,24.996-2.71,33.586-13.702c1.065-1.362,2.427-2.5,3.681-3.71c5.768-5.559,12.604-6.105,17.53-1.42
		c5.226,4.973,4.693,11.663-0.903,17.979c-4.993,5.635-9.559,11.649-14.061,17.187c10.752,10.788,23.307,23.383,35.665,35.782
		c35.501-35.645,71.134-71.422,106.269-106.701c-11.846-11.94-24.189-24.385-37.736-38.04c-1.898,2.405-3.825,5.348-6.25,7.798
		c-3.365,3.401-7.532,4.643-12.245,2.919c-8.486-3.103-10.461-12.898-3.752-19.84c8.48-8.775,17.383-17.144,25.787-25.988
		c6.619-6.965,6.462-17.108,0.19-23.645c-6.532-6.807-16.627-7.215-24.07-0.751c-3.357,2.915-6.336,6.259-9.55,9.344
		c-6.04,5.8-12.987,6.135-17.923,0.924c-4.634-4.894-4.09-11.84,1.495-17.531c6.377-6.497,13.024-12.741,19.21-19.414
		c6.665-7.188,6.358-17.572-0.262-24.071c-6.726-6.604-16.729-6.665-24.075,0.027c-3.576,3.259-6.872,6.824-10.34,10.204
		c-5.965,5.814-13.021,6.388-17.968,1.509c-5.012-4.942-4.556-11.949,1.31-17.927c6.917-7.052,14.139-13.819,20.836-21.072
		c6.698-7.254,6.248-17.474-0.512-24.033c-6.69-6.492-16.88-6.405-24.097,0.346c-3.676,3.439-7.089,7.159-10.738,10.629
		c-5.674,5.394-12.806,5.656-17.555,0.779c-4.752-4.881-4.344-11.873,1.216-17.544c6.374-6.502,12.906-12.847,19.318-19.312
		c8.182-8.25,8.733-18.509,1.453-25.761c-7.247-7.219-17.508-6.692-25.771,1.467c-9.373,9.256-18.559,18.704-28.018,27.87
		c-2.84,2.751-3.528,4.753-1.703,8.776c11.233,24.771-5.068,53.834-31.681,56.519c-4.568,0.461-5.643,2.116-6.134,6.186
		c-2.236,18.51-16.756,32.84-35.146,34.713c-3.681,0.375-5.276,1.302-5.656,5.362c-1.532,16.362-12.96,29.781-28.802,34.24
		C204.693,440.697,200.843,441.162,197.14,441.877z M431.022,696.761c4.428-2.629,8.958-4.251,12.053-7.318
		c41.235-40.885,82.301-81.94,123.325-123.036c7.624-7.638,7.522-16.327,0.025-24.056c-5.659-5.834-11.484-11.509-17.259-17.23
		c-9.547-9.456-17.534-9.471-27.025-0.004c-19.733,19.684-39.442,39.393-59.162,59.091c-20.814,20.793-41.663,41.553-62.43,62.392
		c-8.044,8.072-7.988,16.766,0.021,24.904c6.109,6.206,12.091,12.574,18.598,18.341C422.321,692.64,426.551,694.218,431.022,696.761
		z M235.181,377.07c9.829-0.23,15.371-3.311,18.283-10.018c3.064-7.059,1.961-13.785-3.486-19.299
		c-13.881-14.05-27.829-28.039-41.95-41.849c-7.6-7.431-18.014-7.329-24.895-0.254c-6.687,6.875-6.575,17.038,0.721,24.462
		c13.707,13.95,27.477,27.848,41.58,41.394C228.564,374.513,233.183,375.969,235.181,377.07z M278.587,337.037
		c8.326-0.937,15.074-6.25,16.828-13.832c1.879-8.125-0.57-12.335-8.05-15.827c-23.508-10.971-40.992-27.893-50.933-52.216
		c-0.817-2-2.949-4.089-4.959-4.862c-7.079-2.718-15.237,0.169-19.479,6.337c-4.245,6.173-4.429,15.046,0.869,20.469
		c18.246,18.67,36.766,37.08,55.483,55.277C270.876,334.845,275.131,335.529,278.587,337.037z M214.868,400.377
		c-1.403-3.308-2.023-7.36-4.342-9.795c-11.479-12.055-23.142-23.967-35.287-35.345c-6.365-5.965-16.629-4.783-22.678,1.377
		c-5.952,6.062-7.138,15.899-1.261,22.196c11.483,12.302,23.465,24.175,35.767,35.663c5.066,4.73,11.867,4.545,18.016,1.367
		C211.069,412.746,214.051,407.52,214.868,400.377z M173.416,440.317c-0.537-1.563-0.782-5.095-2.645-7.185
		c-5.616-6.3-11.331-12.739-18.011-17.798c-6.608-5.006-15.957-2.771-21.402,3.532c-5.24,6.069-5.599,15.624-0.184,21.854
		c4.419,5.085,9.268,9.874,14.393,14.245c5.298,4.52,11.633,5.021,17.929,2.072C169.83,454.071,172.934,448.784,173.416,440.317z
		 M292.471,284.239c10.291-10.325,20.045-20.111,30.149-30.25c-21.24-3.181-42.206-9.404-65.438-10.779
		C264.022,263.154,277.313,275.022,292.471,284.239z"/>
	<path fill-rule="evenodd" clip-rule="evenodd" d="M301.127,124.468c6.222,3.126,8.531,8.089,8.376,15.08
		c-0.351,15.671-0.065,31.355-0.13,47.033c-0.034,8.451-4.626,13.569-11.824,13.449c-6.867-0.116-11.453-5.289-11.492-13.281
		c-0.075-15.485,0.262-30.978-0.15-46.452c-0.191-7.161,2.067-12.334,8.244-15.829C296.477,124.468,298.802,124.468,301.127,124.468
		z"/>
	<path fill-rule="evenodd" clip-rule="evenodd" d="M94.773,138.917c2.759-3.535,4.701-7.381,7.799-9.646
		c3.854-2.816,8.601-2.14,12.389,0.955c3.131,2.557,5.917,5.544,8.791,8.405c11.505,11.457,23.048,22.875,34.443,34.439
		c4.476,4.543,5.212,10.098,2.325,14.788c-3.006,4.881-7.545,6.634-12.942,5.163c-2.283-0.623-4.548-2.174-6.268-3.868
		c-13.639-13.42-27.225-26.896-40.611-40.568C98.42,146.258,97.174,142.919,94.773,138.917z"/>
	<path fill-rule="evenodd" clip-rule="evenodd" d="M431.863,182.862c2.254-4.092,3.265-7.387,5.406-9.576
		c13.68-13.991,27.547-27.806,41.49-41.538c5.346-5.265,12.383-5.312,17.084-0.568c4.665,4.708,4.561,11.822-0.668,17.112
		c-13.755,13.92-27.646,27.707-41.512,41.519c-3.821,3.806-8.767,5.258-13.251,2.582
		C437.016,190.367,434.834,186.306,431.863,182.862z"/>
	<path fill-rule="evenodd" clip-rule="evenodd" d="M82.419,647.894c-6.396-0.06-11.423-5.037-11.508-11.396
		c-0.085-6.424,5.411-11.97,11.773-11.881c6.183,0.086,11.409,5.348,11.493,11.572C94.266,642.815,89.104,647.954,82.419,647.894z"
		/>
	<path fill-rule="evenodd" clip-rule="evenodd" d="M399.529,533.879c-6.398,0.061-11.463-4.831-11.638-11.238
		c-0.18-6.561,5.058-12.022,11.555-12.055c6.143-0.029,11.54,5.193,11.757,11.377C411.429,528.384,406.105,533.816,399.529,533.879z
		"/>
</g>
</svg>
